<svg width="1217" height="1121" viewBox="0 0 1217 1121" fill="none" xmlns="http://www.w3.org/2000/svg">
<path d="M117.867 839.312L515.032 641.002L517.787 644.572L129.458 861.712L117.867 839.312Z" stroke="#40760A" stroke-linejoin="round"></path>
<path d="M106.199 817.191L512.523 637.221L515.035 641.001L117.871 839.311L106.199 817.191Z" stroke="#40760A" stroke-linejoin="round"></path>
<path d="M129.457 861.708L517.787 644.568L520.704 647.998L140.967 884.528L129.457 861.708Z" stroke="#40760A" stroke-linejoin="round"></path>
<path d="M94.6992 795.141L510.101 633.302L512.532 637.222L106.209 817.192L94.6992 795.141Z" stroke="#40760A" stroke-linejoin="round"></path>
<path d="M83.168 772.883L507.891 629.243L510.079 633.303L94.6776 795.142L83.168 772.883Z" stroke="#40760A" stroke-linejoin="round"></path>
<path d="M140.973 884.527L520.71 647.998L523.79 651.288L152.401 908.187L140.973 884.527Z" stroke="#40760A" stroke-linejoin="round"></path>
<path d="M71.4258 750.479L505.875 625.039L507.901 629.239L83.1786 772.879L71.4258 750.479Z" stroke="#40760A" stroke-linejoin="round"></path>
<path d="M884.719 1017.18L647.231 670.75L652.094 668.58L900.929 995.969L884.719 1017.18Z" stroke="#40760A" stroke-linejoin="round"></path>
<path d="M866.488 1037.69L642.293 672.71L647.237 670.75L884.725 1017.18L866.488 1037.69Z" stroke="#40760A" stroke-linejoin="round"></path>
<path d="M496.137 1087.32L578.893 679.288L583.594 679.988L525.154 1091.73L496.137 1087.32Z" stroke="#40760A" stroke-linejoin="round"></path>
<path d="M900.925 995.968L652.09 668.579L656.872 666.269L914.867 974.058L900.925 995.968Z" stroke="#40760A" stroke-linejoin="round"></path>
<path d="M58.8633 727.727L504.093 620.697L505.876 625.037L71.4266 750.477L58.8633 727.727Z" stroke="#40760A" stroke-linejoin="round"></path>
<path d="M467.043 1083.96L574.358 678.45L578.897 679.29L496.141 1087.32L467.043 1083.96Z" stroke="#40760A" stroke-linejoin="round"></path>
<path d="M525.164 1091.73L583.604 679.993L588.305 680.483L554.424 1096.91L525.164 1091.73Z" stroke="#40760A" stroke-linejoin="round"></path>
<path d="M914.87 974.059L656.875 666.269L661.657 663.679L927.352 952.149L914.87 974.059Z" stroke="#40760A" stroke-linejoin="round"></path>
<path d="M44.8398 704.556L502.47 616.216L504.092 620.696L58.8622 727.726L44.8398 704.556Z" stroke="#40760A" stroke-linejoin="round"></path>
<path d="M152.391 908.187L523.78 651.287L526.941 654.437L163.9 932.827L152.391 908.187Z" stroke="#40760A" stroke-linejoin="round"></path>
<path d="M437.383 1081.86L569.906 677.401L574.364 678.451L467.049 1083.96L437.383 1081.86Z" stroke="#40760A" stroke-linejoin="round"></path>
<path d="M554.426 1096.91L588.306 680.48L593.007 680.76L584.254 1102.65L554.426 1096.91Z" stroke="#40760A" stroke-linejoin="round"></path>
<path d="M927.363 952.152L661.668 663.683L666.288 660.883L939.359 931.082L927.363 952.152Z" stroke="#40760A" stroke-linejoin="round"></path>
<path d="M32.5156 680.415L501.089 611.605L502.466 616.225L44.8358 704.565L32.5156 680.415Z" stroke="#40760A" stroke-linejoin="round"></path>
<path d="M846.463 1057.57L637.344 674.391L642.288 672.711L866.483 1037.69L846.463 1057.57Z" stroke="#40760A" stroke-linejoin="round"></path>
<path d="M939.348 931.079L666.277 660.88L670.897 657.87L951.749 911.199L939.348 931.079Z" stroke="#40760A" stroke-linejoin="round"></path>
<path d="M23.6055 655.42L499.96 606.91L501.094 611.6L32.5214 680.41L23.6055 655.42Z" stroke="#40760A" stroke-linejoin="round"></path>
<path d="M584.262 1102.65L593.016 680.76L597.798 680.83L614.981 1108.53L584.262 1102.65Z" stroke="#40760A" stroke-linejoin="round"></path>
<path d="M406.59 1081.09L565.537 676.209L569.914 677.399L437.39 1081.86L406.59 1081.09Z" stroke="#40760A" stroke-linejoin="round"></path>
<path d="M951.75 911.2L670.898 657.87L675.275 654.651L965.53 892.72L951.75 911.2Z" stroke="#40760A" stroke-linejoin="round"></path>
<path d="M17.2031 629.801L499.15 602.152L499.96 606.911L23.6064 655.421L17.2031 629.801Z" stroke="#40760A" stroke-linejoin="round"></path>
<path d="M163.93 932.828L526.97 654.439L530.293 657.379L176.007 958.308L163.93 932.828Z" stroke="#40760A" stroke-linejoin="round"></path>
<path d="M965.535 892.718L675.281 654.649L679.577 651.289L981.341 875.498L965.535 892.718Z" stroke="#40760A" stroke-linejoin="round"></path>
<path d="M12.418 603.762L498.498 597.252L499.147 602.153L17.2002 629.802L12.418 603.762Z" stroke="#40760A" stroke-linejoin="round"></path>
<path d="M824.5 1076.61L632.402 675.927L637.347 674.387L846.466 1057.57L824.5 1076.61Z" stroke="#40760A" stroke-linejoin="round"></path>
<path d="M614.98 1108.53L597.797 680.831L602.66 680.76L646.591 1114.06L614.98 1108.53Z" stroke="#40760A" stroke-linejoin="round"></path>
<path d="M981.334 875.499L679.57 651.29L683.785 647.65L999.733 859.399L981.334 875.499Z" stroke="#40760A" stroke-linejoin="round"></path>
<path d="M8.77734 577.299L498.181 592.349L498.505 597.249L12.4248 603.759L8.77734 577.299Z" stroke="#40760A" stroke-linejoin="round"></path>
<path d="M374.23 1081.5L561.141 674.806L565.518 676.205L406.571 1081.08L374.23 1081.5Z" stroke="#40760A" stroke-linejoin="round"></path>
<path d="M999.737 859.403L683.789 647.653L687.761 643.873L1020.89 843.863L999.737 859.403Z" stroke="#40760A" stroke-linejoin="round"></path>
<path d="M5.76563 550.283L498.087 587.313L498.168 592.353L8.76462 577.303L5.76563 550.283Z" stroke="#40760A" stroke-linejoin="round"></path>
<path d="M175.977 958.311L530.263 657.381L533.749 660.181L189.594 984.21L175.977 958.311Z" stroke="#40760A" stroke-linejoin="round"></path>
<path d="M646.58 1114.06L602.648 680.759L607.593 680.409L679.082 1118.54L646.58 1114.06Z" stroke="#40760A" stroke-linejoin="round"></path>
<path d="M800.356 1094.04L627.387 677.262L632.412 675.932L824.51 1076.61L800.356 1094.04Z" stroke="#40760A" stroke-linejoin="round"></path>
<path d="M3.26172 522.699L498.339 582.339L498.096 587.309L5.77439 550.279L3.26172 522.699Z" stroke="#40760A" stroke-linejoin="round"></path>
<path d="M1020.89 843.859L687.754 643.869L691.563 639.879L1044.15 828.109L1020.89 843.859Z" stroke="#40760A" stroke-linejoin="round"></path>
<path d="M1.48047 494.491L498.828 577.301L498.341 582.341L3.26366 522.701L1.48047 494.491Z" stroke="#40760A" stroke-linejoin="round"></path>
<path d="M1044.15 828.108L691.57 639.878L695.137 635.748L1069.52 811.868L1044.15 828.108Z" stroke="#40760A" stroke-linejoin="round"></path>
<path d="M679.091 1118.54L607.602 680.411L612.546 679.921L711.918 1120.5L679.091 1118.54Z" stroke="#40760A" stroke-linejoin="round"></path>
<path d="M773.668 1108.46L622.422 678.379L627.366 677.259L800.335 1094.04L773.668 1108.46Z" stroke="#40760A" stroke-linejoin="round"></path>
<path d="M0.500001 465.581L499.711 572.26L498.82 577.3L1.47265 494.491L0.500001 465.581Z" stroke="#40760A" stroke-linejoin="round"></path>
<path d="M340.84 1080.95L556.93 673.266L561.144 674.806L374.234 1081.51L340.84 1080.95Z" stroke="#40760A" stroke-linejoin="round"></path>
<path d="M1069.52 811.87L695.133 635.75L698.537 631.41L1096.59 794.72L1069.52 811.87Z" stroke="#40760A" stroke-linejoin="round"></path>
<path d="M744.091 1117.84L617.484 679.218L622.429 678.378L773.675 1108.46L744.091 1117.84Z" stroke="#40760A" stroke-linejoin="round"></path>
<path d="M711.903 1120.5L612.531 679.919L617.476 679.219L744.082 1117.84L711.903 1120.5Z" stroke="#40760A" stroke-linejoin="round"></path>
<path d="M189.594 984.208L533.749 660.179L537.315 662.769L205.723 1009.41L189.594 984.208Z" stroke="#40760A" stroke-linejoin="round"></path>
<path d="M1096.61 794.718L698.551 631.408L701.631 626.928L1124.73 776.098L1096.61 794.718Z" stroke="#40760A" stroke-linejoin="round"></path>
<path d="M0.743165 435.968L500.765 567.288L499.711 572.258L0.500001 465.578L0.743165 435.968Z" stroke="#40760A" stroke-linejoin="round"></path>
<path d="M1124.72 776.099L701.617 626.93L704.535 622.31L1152.52 755.73L1124.72 776.099Z" stroke="#40760A" stroke-linejoin="round"></path>
<path d="M308.27 1075.98L552.809 671.521L556.943 673.271L340.853 1080.95L308.27 1075.98Z" stroke="#40760A" stroke-linejoin="round"></path>
<path d="M205.73 1009.41L537.322 662.768L541.051 665.218L225.589 1032.44L205.73 1009.41Z" stroke="#40760A" stroke-linejoin="round"></path>
<path d="M1152.52 755.73L704.531 622.311L707.125 617.55L1177.89 733.33L1152.52 755.73Z" stroke="#40760A" stroke-linejoin="round"></path>
<path d="M277.637 1066.11L548.762 669.557L552.815 671.517L308.275 1075.98L277.637 1066.11Z" stroke="#40760A" stroke-linejoin="round"></path>
<path d="M249.832 1051.48L544.868 667.461L548.759 669.561L277.634 1066.11L249.832 1051.48Z" stroke="#40760A" stroke-linejoin="round"></path>
<path d="M225.578 1032.44L541.04 665.217L544.85 667.457L249.813 1051.48L225.578 1032.44Z" stroke="#40760A" stroke-linejoin="round"></path>
<path d="M1177.89 733.328L707.129 617.548L709.398 612.718L1197.99 708.758L1177.89 733.328Z" stroke="#40760A" stroke-linejoin="round"></path>
<path d="M2.77244 406.012L502.227 562.322L500.768 567.292L0.746095 435.972L2.77244 406.012Z" stroke="#40760A" stroke-linejoin="round"></path>
<path d="M634.661 51.8811L609.21 498.27L603.617 498.13L601.672 62.5212L634.661 51.8811Z" stroke="#40760A" stroke-linejoin="round"></path>
<path d="M601.666 62.5234L603.611 498.132L598.099 498.202L570.055 69.2431L601.666 62.5234Z" stroke="#40760A" stroke-linejoin="round"></path>
<path d="M570.075 69.2394L598.12 498.199L592.608 498.548L539.031 72.0396L570.075 69.2394Z" stroke="#40760A" stroke-linejoin="round"></path>
<path d="M539.039 72.0403L592.615 498.549L587.104 499.039L507.914 71.3405L539.039 72.0403Z" stroke="#40760A" stroke-linejoin="round"></path>
<path d="M1197.99 708.759L709.398 612.719L711.344 607.749L1210.72 682.579L1197.99 708.759Z" stroke="#40760A" stroke-linejoin="round"></path>
<path d="M507.905 71.342L587.095 499.041L581.583 499.741L476.051 68.1919L507.905 71.342Z" stroke="#40760A" stroke-linejoin="round"></path>
<path d="M476.034 68.1906L581.566 499.739L576.217 500.719L443.207 64.0604L476.034 68.1906Z" stroke="#40760A" stroke-linejoin="round"></path>
<path d="M669.592 38.0891L614.719 498.618L609.207 498.268L634.658 51.8789L669.592 38.0891Z" stroke="#40760A" stroke-linejoin="round"></path>
<path d="M443.215 64.0652L576.224 500.724L570.875 501.914L409.496 60.8455L443.215 64.0652Z" stroke="#40760A" stroke-linejoin="round"></path>
<path d="M1210.71 682.58L711.34 607.75L713.042 602.71L1216.31 655.63L1210.71 682.58Z" stroke="#40760A" stroke-linejoin="round"></path>
<path d="M7.2314 376.054L503.93 557.493L502.228 562.323L2.77344 406.014L7.2314 376.054Z" stroke="#40760A" stroke-linejoin="round"></path>
<path d="M1216.31 655.632L713.051 602.712L714.348 597.603L1215.91 628.542L1216.31 655.632Z" stroke="#40760A" stroke-linejoin="round"></path>
<path d="M231.175 133.08L540.882 514.229L536.424 517.099L204.184 149.53L231.175 133.08Z" stroke="#40760A" stroke-linejoin="round"></path>
<path d="M959.933 154.432L668.058 513.181L663.113 510.801L948.91 118.452L959.933 154.432Z" stroke="#40760A" stroke-linejoin="round"></path>
<path d="M257.522 115.091L545.588 511.57L540.887 514.23L231.18 133.081L257.522 115.091Z" stroke="#40760A" stroke-linejoin="round"></path>
<path d="M1215.91 628.538L714.344 597.598L715.235 592.488L1210.8 601.868L1215.91 628.538Z" stroke="#40760A" stroke-linejoin="round"></path>
<path d="M969.158 188.869L672.825 515.768L668.043 513.178L959.918 154.429L969.158 188.869Z" stroke="#40760A" stroke-linejoin="round"></path>
<path d="M978.417 220.231L677.545 518.57L672.844 515.77L969.177 188.871L978.417 220.231Z" stroke="#40760A" stroke-linejoin="round"></path>
<path d="M204.183 149.533L536.424 517.102L532.047 520.252L175.977 164.443L204.183 149.533Z" stroke="#40760A" stroke-linejoin="round"></path>
<path d="M1210.81 601.87L715.25 592.49L715.817 587.31L1202.55 575.9L1210.81 601.87Z" stroke="#40760A" stroke-linejoin="round"></path>
<path d="M409.489 60.8413L570.867 501.91L565.599 503.38L375.527 60.7713L409.489 60.8413Z" stroke="#40760A" stroke-linejoin="round"></path>
<path d="M989.022 247.811L682.07 521.58L677.531 518.57L978.404 220.231L989.022 247.811Z" stroke="#40760A" stroke-linejoin="round"></path>
<path d="M284.264 96.6134L550.364 509.122L545.582 511.572L257.516 115.093L284.264 96.6134Z" stroke="#40760A" stroke-linejoin="round"></path>
<path d="M1202.53 575.899L715.797 587.309L716.04 582.199L1192.39 550.629L1202.53 575.899Z" stroke="#40760A" stroke-linejoin="round"></path>
<path d="M1002.18 271.608L686.39 524.728L682.094 521.578L989.045 247.808L1002.18 271.608Z" stroke="#40760A" stroke-linejoin="round"></path>
<path d="M1018.62 291.773L690.436 528.163L686.383 524.733L1002.17 271.613L1018.62 291.773Z" stroke="#40760A" stroke-linejoin="round"></path>
<path d="M1192.4 550.627L716.049 582.197L715.887 577.087L1181.7 525.988L1192.4 550.627Z" stroke="#40760A" stroke-linejoin="round"></path>
<path d="M11.1328 344.486L505.967 552.735L503.941 557.495L7.24219 376.056L11.1328 344.486Z" stroke="#40760A" stroke-linejoin="round"></path>
<path d="M1038.71 309.13L694.312 531.799L690.422 528.159L1018.61 291.77L1038.71 309.13Z" stroke="#40760A" stroke-linejoin="round"></path>
<path d="M312.407 79.53L555.326 506.949L550.381 509.119L284.281 96.6099L312.407 79.53Z" stroke="#40760A" stroke-linejoin="round"></path>
<path d="M1181.71 525.991L715.892 577.09L715.324 571.981L1171.25 501.771L1181.71 525.991Z" stroke="#40760A" stroke-linejoin="round"></path>
<path d="M342.786 66.6513L560.416 505.06L555.309 506.95L312.391 79.5314L342.786 66.6513Z" stroke="#40760A" stroke-linejoin="round"></path>
<path d="M375.547 60.7757L565.618 503.384L560.431 505.065L342.801 66.6555L375.547 60.7757Z" stroke="#40760A" stroke-linejoin="round"></path>
<path d="M1062.4 324.457L697.898 535.576L694.332 531.796L1038.73 309.127L1062.4 324.457Z" stroke="#40760A" stroke-linejoin="round"></path>
<path d="M1171.24 501.77L715.312 571.98L714.34 567.01L1161.68 477.48L1171.24 501.77Z" stroke="#40760A" stroke-linejoin="round"></path>
<path d="M175.982 164.443L532.052 520.252L527.999 523.612L146.641 178.443L175.982 164.443Z" stroke="#40760A" stroke-linejoin="round"></path>
<path d="M1087.44 339.86L701.218 539.569L697.895 535.579L1062.39 324.46L1087.44 339.86Z" stroke="#40760A" stroke-linejoin="round"></path>
<path d="M1161.68 477.481L714.348 567.011L713.051 562.111L1153.5 452.981L1161.68 477.481Z" stroke="#40760A" stroke-linejoin="round"></path>
<path d="M1110.95 357.078L704.299 543.768L701.219 539.568L1087.44 339.858L1110.95 357.078Z" stroke="#40760A" stroke-linejoin="round"></path>
<path d="M1153.5 452.984L713.055 562.113L711.434 557.353L1146.86 427.644L1153.5 452.984Z" stroke="#40760A" stroke-linejoin="round"></path>
<path d="M1130.15 377.312L706.964 548.111L704.289 543.771L1110.94 357.082L1130.15 377.312Z" stroke="#40760A" stroke-linejoin="round"></path>
<path d="M1141.57 401.393L709.311 552.663L706.961 548.113L1130.14 377.314L1141.57 401.393Z" stroke="#40760A" stroke-linejoin="round"></path>
<path d="M1146.85 427.643L711.428 557.353L709.32 552.663L1141.58 401.393L1146.85 427.643Z" stroke="#40760A" stroke-linejoin="round"></path>
<path d="M706.889 22.8343L620.323 499.183L614.73 498.623L669.604 38.0942L706.889 22.8343Z" stroke="#40760A" stroke-linejoin="round"></path>
<path d="M146.651 178.44L528.01 523.609L524.119 527.179L116.742 192.72L146.651 178.44Z" stroke="#40760A" stroke-linejoin="round"></path>
<path d="M948.914 118.446L663.118 510.795L658.012 508.625L934.487 83.0263L948.914 118.446Z" stroke="#40760A" stroke-linejoin="round"></path>
<path d="M15.8222 311.931L508.306 548.041L505.955 552.731L11.1211 344.481L15.8222 311.931Z" stroke="#40760A" stroke-linejoin="round"></path>
<path d="M116.719 192.722L524.097 527.181L520.368 530.961L87.6211 208.892L116.719 192.722Z" stroke="#40760A" stroke-linejoin="round"></path>
<path d="M24.8984 280.571L510.898 543.561L508.304 548.041L15.8203 311.931L24.8984 280.571Z" stroke="#40760A" stroke-linejoin="round"></path>
<path d="M745.95 9.25239L625.828 499.881L620.316 499.181L706.882 22.8324L745.95 9.25239Z" stroke="#40760A" stroke-linejoin="round"></path>
<path d="M87.6257 208.891L520.373 530.96L516.968 535.02L61.4453 228.421L87.6257 208.891Z" stroke="#40760A" stroke-linejoin="round"></path>
<path d="M40.0516 252.292L513.812 539.221L510.894 543.562L24.8945 280.572L40.0516 252.292Z" stroke="#40760A" stroke-linejoin="round"></path>
<path d="M61.4529 228.418L516.976 535.017L513.815 539.217L40.0547 252.288L61.4529 228.418Z" stroke="#40760A" stroke-linejoin="round"></path>
<path d="M934.475 83.0331L658 508.632L652.813 506.672L915.103 51.0431L934.475 83.0331Z" stroke="#40760A" stroke-linejoin="round"></path>
<path d="M785.188 1.41155L631.348 500.86L625.836 499.88L745.958 9.25192L785.188 1.41155Z" stroke="#40760A" stroke-linejoin="round"></path>
<path d="M915.114 51.0417L652.823 506.671L647.555 504.921L889.906 25.3519L915.114 51.0417Z" stroke="#40760A" stroke-linejoin="round"></path>
<path d="M823.527 0.500019L636.778 502.048L631.348 500.859L785.188 1.40962L823.527 0.500019Z" stroke="#40760A" stroke-linejoin="round"></path>
<path d="M859.031 8.20467L642.212 503.383L636.781 502.053L823.53 0.504863L859.031 8.20467Z" stroke="#40760A" stroke-linejoin="round"></path>
<path d="M889.904 25.352L647.553 504.921L642.203 503.381L859.022 8.20191L889.904 25.352Z" stroke="#40760A" stroke-linejoin="round"></path>
</svg>