<svg width="1150" height="1161" viewBox="0 0 1150 1161" fill="none" xmlns="http://www.w3.org/2000/svg">
<path d="M1038.3 291.482L662.972 496.874L660.368 493.176L1027.34 268.282L1038.3 291.482Z" stroke="#731C0D" stroke-width="0.5" stroke-linejoin="round"></path>
<path d="M1049.33 314.39L665.352 500.787L662.978 496.872L1038.3 291.48L1049.33 314.39Z" stroke="#731C0D" stroke-width="0.5" stroke-linejoin="round"></path>
<path d="M1027.34 268.282L660.364 493.176L657.607 489.624L1016.46 244.647L1027.34 268.282Z" stroke="#731C0D" stroke-width="0.5" stroke-linejoin="round"></path>
<path d="M1060.19 337.23L667.633 504.849L665.335 500.789L1049.32 314.392L1060.19 337.23Z" stroke="#731C0D" stroke-width="0.5" stroke-linejoin="round"></path>
<path d="M1071.09 360.283L669.722 509.053L667.654 504.848L1060.21 337.229L1071.09 360.283Z" stroke="#731C0D" stroke-width="0.5" stroke-linejoin="round"></path>
<path d="M1016.47 244.647L657.613 489.624L654.702 486.217L1005.67 220.142L1016.47 244.647Z" stroke="#731C0D" stroke-width="0.5" stroke-linejoin="round"></path>
<path d="M1082.19 383.483L671.628 513.403L669.714 509.053L1071.08 360.284L1082.19 383.483Z" stroke="#731C0D" stroke-width="0.5" stroke-linejoin="round"></path>
<path d="M313.611 107.26L538.039 466.061L533.444 468.309L298.291 129.227L313.611 107.26Z" stroke="#731C0D" stroke-width="0.5" stroke-linejoin="round"></path>
<path d="M330.848 86.019L542.715 464.033L538.043 466.063L313.614 107.262L330.848 86.019Z" stroke="#731C0D" stroke-width="0.5" stroke-linejoin="round"></path>
<path d="M680.832 34.6164L602.627 457.218L598.184 456.493L653.411 30.0488L680.832 34.6164Z" stroke="#731C0D" stroke-width="0.5" stroke-linejoin="round"></path>
<path d="M298.305 129.228L533.457 468.31L528.938 470.702L285.13 151.92L298.305 129.228Z" stroke="#731C0D" stroke-width="0.5" stroke-linejoin="round"></path>
<path d="M1094.06 407.047L673.312 517.9L671.627 513.405L1082.19 383.485L1094.06 407.047Z" stroke="#731C0D" stroke-width="0.5" stroke-linejoin="round"></path>
<path d="M708.332 38.0958L606.918 458.087L602.629 457.217L680.834 34.6157L708.332 38.0958Z" stroke="#731C0D" stroke-width="0.5" stroke-linejoin="round"></path>
<path d="M653.399 30.0461L598.172 456.49L593.73 455.983L625.747 24.6812L653.399 30.0461Z" stroke="#731C0D" stroke-width="0.5" stroke-linejoin="round"></path>
<path d="M285.13 151.919L528.938 470.701L524.419 473.383L273.334 174.611L285.13 151.919Z" stroke="#731C0D" stroke-width="0.5" stroke-linejoin="round"></path>
<path d="M1107.32 431.045L674.855 522.54L673.323 517.9L1094.07 407.047L1107.32 431.045Z" stroke="#731C0D" stroke-width="0.5" stroke-linejoin="round"></path>
<path d="M1005.68 220.142L654.713 486.217L651.726 482.954L994.803 194.623L1005.68 220.142Z" stroke="#731C0D" stroke-width="0.5" stroke-linejoin="round"></path>
<path d="M736.348 40.2706L611.112 459.175L606.899 458.087L708.314 38.0957L736.348 40.2706Z" stroke="#731C0D" stroke-width="0.5" stroke-linejoin="round"></path>
<path d="M625.747 24.6843L593.729 455.986L589.286 455.696L597.559 18.7393L625.747 24.6843Z" stroke="#731C0D" stroke-width="0.5" stroke-linejoin="round"></path>
<path d="M273.322 174.613L524.407 473.385L520.041 476.285L261.986 196.436L273.322 174.613Z" stroke="#731C0D" stroke-width="0.5" stroke-linejoin="round"></path>
<path d="M1118.95 456.055L676.147 527.322L674.844 522.537L1107.31 431.042L1118.95 456.055Z" stroke="#731C0D" stroke-width="0.5" stroke-linejoin="round"></path>
<path d="M349.771 65.4263L547.391 462.29L542.719 464.03L330.852 86.0162L349.771 65.4263Z" stroke="#731C0D" stroke-width="0.5" stroke-linejoin="round"></path>
<path d="M261.992 196.436L520.047 476.285L515.681 479.402L250.273 217.025L261.992 196.436Z" stroke="#731C0D" stroke-width="0.5" stroke-linejoin="round"></path>
<path d="M1127.38 481.937L677.219 532.179L676.147 527.322L1118.95 456.055L1127.38 481.937Z" stroke="#731C0D" stroke-width="0.5" stroke-linejoin="round"></path>
<path d="M597.559 18.7379L589.287 455.695L584.767 455.622L568.529 12.6479L597.559 18.7379Z" stroke="#731C0D" stroke-width="0.5" stroke-linejoin="round"></path>
<path d="M765.442 41.0681L615.235 460.407L611.099 459.174L736.335 40.2705L765.442 41.0681Z" stroke="#731C0D" stroke-width="0.5" stroke-linejoin="round"></path>
<path d="M250.272 217.024L515.68 479.401L511.544 482.736L237.25 236.164L250.272 217.024Z" stroke="#731C0D" stroke-width="0.5" stroke-linejoin="round"></path>
<path d="M1133.42 508.473L677.977 537.111L677.211 532.181L1127.37 481.938L1133.42 508.473Z" stroke="#731C0D" stroke-width="0.5" stroke-linejoin="round"></path>
<path d="M994.778 194.621L651.7 482.952L648.56 479.907L983.365 168.23L994.778 194.621Z" stroke="#731C0D" stroke-width="0.5" stroke-linejoin="round"></path>
<path d="M237.246 236.166L511.539 482.737L507.48 486.217L222.309 254L237.246 236.166Z" stroke="#731C0D" stroke-width="0.5" stroke-linejoin="round"></path>
<path d="M1137.96 535.443L678.606 542.186L677.993 537.11L1133.44 508.473L1137.96 535.443Z" stroke="#731C0D" stroke-width="0.5" stroke-linejoin="round"></path>
<path d="M370.524 45.708L552.059 460.697L547.387 462.292L349.767 65.428L370.524 45.708Z" stroke="#731C0D" stroke-width="0.5" stroke-linejoin="round"></path>
<path d="M568.524 12.6464L584.762 455.62L580.166 455.693L538.651 6.91885L568.524 12.6464Z" stroke="#731C0D" stroke-width="0.5" stroke-linejoin="round"></path>
<path d="M222.318 253.999L507.489 486.216L503.506 489.986L204.931 270.674L222.318 253.999Z" stroke="#731C0D" stroke-width="0.5" stroke-linejoin="round"></path>
<path d="M1141.39 562.848L678.903 547.261L678.597 542.186L1137.95 535.443L1141.39 562.848Z" stroke="#731C0D" stroke-width="0.5" stroke-linejoin="round"></path>
<path d="M796.032 40.6333L619.399 461.857L615.263 460.407L765.47 41.0683L796.032 40.6333Z" stroke="#731C0D" stroke-width="0.5" stroke-linejoin="round"></path>
<path d="M204.926 270.675L503.5 489.987L499.747 493.902L184.934 286.77L204.926 270.675Z" stroke="#731C0D" stroke-width="0.5" stroke-linejoin="round"></path>
<path d="M1144.23 590.833L678.985 552.481L678.909 547.261L1141.4 562.848L1144.23 590.833Z" stroke="#731C0D" stroke-width="0.5" stroke-linejoin="round"></path>
<path d="M983.383 168.232L648.578 479.908L645.284 477.009L970.515 141.407L983.383 168.232Z" stroke="#731C0D" stroke-width="0.5" stroke-linejoin="round"></path>
<path d="M538.661 6.92063L580.176 455.695L575.504 456.057L507.945 2.28076L538.661 6.92063Z" stroke="#731C0D" stroke-width="0.5" stroke-linejoin="round"></path>
<path d="M393.339 27.6551L556.797 459.319L552.048 460.697L370.514 45.7075L393.339 27.6551Z" stroke="#731C0D" stroke-width="0.5" stroke-linejoin="round"></path>
<path d="M1146.6 619.398L678.744 557.629L678.974 552.481L1144.22 590.833L1146.6 619.398Z" stroke="#731C0D" stroke-width="0.5" stroke-linejoin="round"></path>
<path d="M184.937 286.771L499.75 493.903L496.15 498.036L162.954 303.083L184.937 286.771Z" stroke="#731C0D" stroke-width="0.5" stroke-linejoin="round"></path>
<path d="M1148.28 648.615L678.283 562.848L678.743 557.628L1146.6 619.398L1148.28 648.615Z" stroke="#731C0D" stroke-width="0.5" stroke-linejoin="round"></path>
<path d="M162.952 303.083L496.149 498.035L492.779 502.313L138.978 319.903L162.952 303.083Z" stroke="#731C0D" stroke-width="0.5" stroke-linejoin="round"></path>
<path d="M507.938 2.27998L575.497 456.056L570.824 456.564L476.916 0.249996L507.938 2.27998Z" stroke="#731C0D" stroke-width="0.5" stroke-linejoin="round"></path>
<path d="M418.559 12.7192L561.489 458.158L556.816 459.318L393.359 27.6542L418.559 12.7192Z" stroke="#731C0D" stroke-width="0.5" stroke-linejoin="round"></path>
<path d="M1149.21 678.558L677.451 568.069L678.294 562.849L1148.29 648.616L1149.21 678.558Z" stroke="#731C0D" stroke-width="0.5" stroke-linejoin="round"></path>
<path d="M827.594 41.2137L623.387 463.453L619.404 461.858L796.036 40.6338L827.594 41.2137Z" stroke="#731C0D" stroke-width="0.5" stroke-linejoin="round"></path>
<path d="M138.977 319.904L492.778 502.313L489.561 506.808L113.393 337.666L138.977 319.904Z" stroke="#731C0D" stroke-width="0.5" stroke-linejoin="round"></path>
<path d="M446.512 3.00683L566.157 457.291L561.484 458.161L418.554 12.7218L446.512 3.00683Z" stroke="#731C0D" stroke-width="0.5" stroke-linejoin="round"></path>
<path d="M476.921 0.249996L570.829 456.564L566.156 457.289L446.512 3.00502L476.921 0.249996Z" stroke="#731C0D" stroke-width="0.5" stroke-linejoin="round"></path>
<path d="M970.52 141.406L645.289 477.008L641.919 474.325L955.277 115.306L970.52 141.406Z" stroke="#731C0D" stroke-width="0.5" stroke-linejoin="round"></path>
<path d="M113.388 337.666L489.555 506.808L486.644 511.448L86.8085 356.95L113.388 337.666Z" stroke="#731C0D" stroke-width="0.5" stroke-linejoin="round"></path>
<path d="M1148.98 709.227L676.455 573.217L677.451 568.069L1149.21 678.559L1148.98 709.227Z" stroke="#731C0D" stroke-width="0.5" stroke-linejoin="round"></path>
<path d="M86.8169 356.951L486.653 511.448L483.895 516.233L60.5441 378.048L86.8169 356.951Z" stroke="#731C0D" stroke-width="0.5" stroke-linejoin="round"></path>
<path d="M858.368 46.3589L627.275 465.263L623.368 463.45L827.576 41.2114L858.368 46.3589Z" stroke="#731C0D" stroke-width="0.5" stroke-linejoin="round"></path>
<path d="M955.266 115.308L641.908 474.327L638.385 471.789L936.5 91.4551L955.266 115.308Z" stroke="#731C0D" stroke-width="0.5" stroke-linejoin="round"></path>
<path d="M60.5477 378.047L483.899 516.232L481.448 521.162L36.573 401.247L60.5477 378.047Z" stroke="#731C0D" stroke-width="0.5" stroke-linejoin="round"></path>
<path d="M887.317 56.5829L631.1 467.294L627.27 465.264L858.363 46.3604L887.317 56.5829Z" stroke="#731C0D" stroke-width="0.5" stroke-linejoin="round"></path>
<path d="M913.602 71.7359L634.789 469.47L631.113 467.295L887.329 56.5835L913.602 71.7359Z" stroke="#731C0D" stroke-width="0.5" stroke-linejoin="round"></path>
<path d="M936.512 91.4573L638.397 471.791L634.797 469.471L913.61 71.7373L936.512 91.4573Z" stroke="#731C0D" stroke-width="0.5" stroke-linejoin="round"></path>
<path d="M36.5631 401.248L481.438 521.162L479.293 526.165L17.567 426.695L36.5631 401.248Z" stroke="#731C0D" stroke-width="0.5" stroke-linejoin="round"></path>
<path d="M1147.07 740.255L675.083 578.363L676.462 573.216L1148.99 709.226L1147.07 740.255Z" stroke="#731C0D" stroke-width="0.5" stroke-linejoin="round"></path>
<path d="M549.931 1107.03L573.982 644.703L579.267 644.848L581.106 1096.01L549.931 1107.03Z" stroke="#731C0D" stroke-width="0.5" stroke-linejoin="round"></path>
<path d="M581.1 1096.01L579.262 644.848L584.471 644.775L610.973 1089.05L581.1 1096.01Z" stroke="#731C0D" stroke-width="0.5" stroke-linejoin="round"></path>
<path d="M610.961 1089.05L584.458 644.774L589.667 644.412L640.297 1086.15L610.961 1089.05Z" stroke="#731C0D" stroke-width="0.5" stroke-linejoin="round"></path>
<path d="M640.29 1086.15L589.66 644.414L594.868 643.906L669.703 1086.88L640.29 1086.15Z" stroke="#731C0D" stroke-width="0.5" stroke-linejoin="round"></path>
<path d="M17.5711 426.694L479.297 526.164L477.459 531.312L5.5454 453.809L17.5711 426.694Z" stroke="#731C0D" stroke-width="0.5" stroke-linejoin="round"></path>
<path d="M669.718 1086.88L594.883 643.905L600.092 643.18L699.821 1090.14L669.718 1086.88Z" stroke="#731C0D" stroke-width="0.5" stroke-linejoin="round"></path>
<path d="M699.826 1090.14L600.097 643.18L605.153 642.165L730.848 1094.42L699.826 1090.14Z" stroke="#731C0D" stroke-width="0.5" stroke-linejoin="round"></path>
<path d="M516.908 1121.32L568.764 644.341L573.973 644.703L549.922 1107.03L516.908 1121.32Z" stroke="#731C0D" stroke-width="0.5" stroke-linejoin="round"></path>
<path d="M730.851 1094.42L605.155 642.165L610.211 640.932L762.715 1097.75L730.851 1094.42Z" stroke="#731C0D" stroke-width="0.5" stroke-linejoin="round"></path>
<path d="M5.54378 453.809L477.457 531.311L475.849 536.531L0.258575 481.722L5.54378 453.809Z" stroke="#731C0D" stroke-width="0.5" stroke-linejoin="round"></path>
<path d="M1142.85 771.284L673.468 583.364L675.077 578.362L1147.07 740.254L1142.85 771.284Z" stroke="#731C0D" stroke-width="0.5" stroke-linejoin="round"></path>
<path d="M0.250094 481.721L475.84 536.531L474.615 541.823L0.6331 509.779L0.250094 481.721Z" stroke="#731C0D" stroke-width="0.5" stroke-linejoin="round"></path>
<path d="M931.22 1022.93L638.544 628.172L642.756 625.2L956.727 1005.9L931.22 1022.93Z" stroke="#731C0D" stroke-width="0.5" stroke-linejoin="round"></path>
<path d="M242.53 1000.82L518.355 629.26L523.028 631.725L252.947 1038.09L242.53 1000.82Z" stroke="#731C0D" stroke-width="0.5" stroke-linejoin="round"></path>
<path d="M906.325 1041.57L634.1 630.929L638.542 628.174L931.219 1022.94L906.325 1041.57Z" stroke="#731C0D" stroke-width="0.5" stroke-linejoin="round"></path>
<path d="M0.643749 509.779L474.625 541.824L473.783 547.116L5.46927 537.401L0.643749 509.779Z" stroke="#731C0D" stroke-width="0.5" stroke-linejoin="round"></path>
<path d="M233.81 965.152L513.848 626.578L518.368 629.26L242.542 1000.82L233.81 965.152Z" stroke="#731C0D" stroke-width="0.5" stroke-linejoin="round"></path>
<path d="M225.074 932.674L509.402 623.679L513.844 626.579L233.806 965.153L225.074 932.674Z" stroke="#731C0D" stroke-width="0.5" stroke-linejoin="round"></path>
<path d="M956.728 1005.9L642.757 625.199L646.893 621.937L983.383 990.453L956.728 1005.9Z" stroke="#731C0D" stroke-width="0.5" stroke-linejoin="round"></path>
<path d="M5.45635 537.401L473.77 547.116L473.234 552.481L13.2693 564.298L5.45635 537.401Z" stroke="#731C0D" stroke-width="0.5" stroke-linejoin="round"></path>
<path d="M762.711 1097.75L610.207 640.931L615.185 639.408L794.805 1097.82L762.711 1097.75Z" stroke="#731C0D" stroke-width="0.5" stroke-linejoin="round"></path>
<path d="M215.045 904.108L505.117 620.561L509.407 623.678L225.079 932.673L215.045 904.108Z" stroke="#731C0D" stroke-width="0.5" stroke-linejoin="round"></path>
<path d="M881.052 1060.71L629.584 633.464L634.103 630.926L906.329 1041.57L881.052 1060.71Z" stroke="#731C0D" stroke-width="0.5" stroke-linejoin="round"></path>
<path d="M13.286 564.298L473.25 552.481L473.021 557.774L22.8606 590.471L13.286 564.298Z" stroke="#731C0D" stroke-width="0.5" stroke-linejoin="round"></path>
<path d="M202.613 879.458L501.034 617.299L505.094 620.561L215.022 904.108L202.613 879.458Z" stroke="#731C0D" stroke-width="0.5" stroke-linejoin="round"></path>
<path d="M187.069 858.575L497.21 613.744L501.039 617.296L202.618 879.455L187.069 858.575Z" stroke="#731C0D" stroke-width="0.5" stroke-linejoin="round"></path>
<path d="M22.8512 590.472L473.011 557.774L473.164 563.067L32.962 615.992L22.8512 590.472Z" stroke="#731C0D" stroke-width="0.5" stroke-linejoin="round"></path>
<path d="M1139.17 803.98L671.543 588.293L673.458 583.363L1142.84 771.283L1139.17 803.98Z" stroke="#731C0D" stroke-width="0.5" stroke-linejoin="round"></path>
<path d="M168.09 840.596L493.55 609.974L497.227 613.744L187.086 858.576L168.09 840.596Z" stroke="#731C0D" stroke-width="0.5" stroke-linejoin="round"></path>
<path d="M854.453 1078.4L624.892 635.713L629.564 633.465L881.032 1060.71L854.453 1078.4Z" stroke="#731C0D" stroke-width="0.5" stroke-linejoin="round"></path>
<path d="M32.9611 615.993L473.163 563.068L473.7 568.361L42.842 641.078L32.9611 615.993Z" stroke="#731C0D" stroke-width="0.5" stroke-linejoin="round"></path>
<path d="M825.749 1091.74L620.086 637.671L624.912 635.713L854.473 1078.4L825.749 1091.74Z" stroke="#731C0D" stroke-width="0.5" stroke-linejoin="round"></path>
<path d="M794.794 1097.83L615.174 639.41L620.076 637.669L825.739 1091.74L794.794 1097.83Z" stroke="#731C0D" stroke-width="0.5" stroke-linejoin="round"></path>
<path d="M145.705 824.719L490.161 606.06L493.532 609.975L168.071 840.597L145.705 824.719Z" stroke="#731C0D" stroke-width="0.5" stroke-linejoin="round"></path>
<path d="M42.8486 641.077L473.706 568.36L474.625 573.508L51.8871 666.235L42.8486 641.077Z" stroke="#731C0D" stroke-width="0.5" stroke-linejoin="round"></path>
<path d="M983.382 990.454L646.891 621.937L650.721 618.457L1011.11 975.954L983.382 990.454Z" stroke="#731C0D" stroke-width="0.5" stroke-linejoin="round"></path>
<path d="M122.047 808.769L487.032 601.927L490.172 606.059L145.716 824.719L122.047 808.769Z" stroke="#731C0D" stroke-width="0.5" stroke-linejoin="round"></path>
<path d="M51.8764 666.235L474.615 573.508L475.84 578.583L59.6127 691.61L51.8764 666.235Z" stroke="#731C0D" stroke-width="0.5" stroke-linejoin="round"></path>
<path d="M99.8265 790.933L484.113 597.576L487.024 601.926L122.04 808.768L99.8265 790.933Z" stroke="#731C0D" stroke-width="0.5" stroke-linejoin="round"></path>
<path d="M59.6119 691.608L475.84 578.581L477.372 583.511L65.8929 717.853L59.6119 691.608Z" stroke="#731C0D" stroke-width="0.5" stroke-linejoin="round"></path>
<path d="M81.6854 769.981L481.598 593.082L484.125 597.577L99.8388 790.934L81.6854 769.981Z" stroke="#731C0D" stroke-width="0.5" stroke-linejoin="round"></path>
<path d="M70.8854 745.04L479.377 588.368L481.598 593.081L81.6856 769.98L70.8854 745.04Z" stroke="#731C0D" stroke-width="0.5" stroke-linejoin="round"></path>
<path d="M65.8975 717.854L477.376 583.511L479.368 588.369L70.8762 745.041L65.8975 717.854Z" stroke="#731C0D" stroke-width="0.5" stroke-linejoin="round"></path>
<path d="M481.667 1137.12L563.473 643.759L568.758 644.339L516.902 1121.32L481.667 1137.12Z" stroke="#731C0D" stroke-width="0.5" stroke-linejoin="round"></path>
<path d="M1011.1 975.955L650.711 618.458L654.388 614.761L1039.36 961.165L1011.1 975.955Z" stroke="#731C0D" stroke-width="0.5" stroke-linejoin="round"></path>
<path d="M252.95 1038.09L523.03 631.725L527.856 633.973L266.584 1074.77L252.95 1038.09Z" stroke="#731C0D" stroke-width="0.5" stroke-linejoin="round"></path>
<path d="M1134.74 837.696L669.335 593.154L671.556 588.297L1139.18 803.984L1134.74 837.696Z" stroke="#731C0D" stroke-width="0.5" stroke-linejoin="round"></path>
<path d="M1039.38 961.163L654.405 614.759L657.928 610.844L1066.88 944.415L1039.38 961.163Z" stroke="#731C0D" stroke-width="0.5" stroke-linejoin="round"></path>
<path d="M1126.15 870.176L666.877 597.794L669.328 593.154L1134.73 837.696L1126.15 870.176Z" stroke="#731C0D" stroke-width="0.5" stroke-linejoin="round"></path>
<path d="M444.752 1151.19L558.268 643.036L563.477 643.761L481.671 1137.12L444.752 1151.19Z" stroke="#731C0D" stroke-width="0.5" stroke-linejoin="round"></path>
<path d="M1066.88 944.415L657.93 610.843L661.147 606.638L1091.62 924.187L1066.88 944.415Z" stroke="#731C0D" stroke-width="0.5" stroke-linejoin="round"></path>
<path d="M1111.83 899.465L664.124 602.289L666.882 597.793L1126.16 870.175L1111.83 899.465Z" stroke="#731C0D" stroke-width="0.5" stroke-linejoin="round"></path>
<path d="M1091.61 924.188L661.132 606.639L664.12 602.289L1111.83 899.466L1091.61 924.188Z" stroke="#731C0D" stroke-width="0.5" stroke-linejoin="round"></path>
<path d="M266.588 1074.77L527.86 633.971L532.762 636.001L284.895 1107.9L266.588 1074.77Z" stroke="#731C0D" stroke-width="0.5" stroke-linejoin="round"></path>
<path d="M407.673 1159.31L553.054 642.019L558.262 643.035L444.745 1151.19L407.673 1159.31Z" stroke="#731C0D" stroke-width="0.5" stroke-linejoin="round"></path>
<path d="M284.888 1107.9L532.756 636.002L537.735 637.814L308.71 1134.51L284.888 1107.9Z" stroke="#731C0D" stroke-width="0.5" stroke-linejoin="round"></path>
<path d="M371.444 1160.25L547.923 640.789L553.055 642.021L407.674 1159.31L371.444 1160.25Z" stroke="#731C0D" stroke-width="0.5" stroke-linejoin="round"></path>
<path d="M337.89 1152.27L542.786 639.408L547.918 640.786L371.439 1160.25L337.89 1152.27Z" stroke="#731C0D" stroke-width="0.5" stroke-linejoin="round"></path>
<path d="M308.717 1134.51L537.742 637.814L542.797 639.409L337.901 1152.27L308.717 1134.51Z" stroke="#731C0D" stroke-width="0.5" stroke-linejoin="round"></path>
</svg>