<svg width="1197" height="1155" viewBox="0 0 1197 1155" fill="none" xmlns="http://www.w3.org/2000/svg">
<path d="M895.671 1042.53L684.037 665.764L687.847 663.15L919.576 1031.53L895.671 1042.53Z" stroke="#0D1A73" stroke-linejoin="round"></path>
<path d="M872.067 1053.6L680.005 668.145L684.039 665.761L895.673 1042.53L872.067 1053.6Z" stroke="#0D1A73" stroke-linejoin="round"></path>
<path d="M919.578 1031.53L687.849 663.146L691.509 660.377L943.931 1020.61L919.578 1031.53Z" stroke="#0D1A73" stroke-linejoin="round"></path>
<path d="M848.532 1064.5L675.819 670.437L680.002 668.13L872.064 1053.58L848.532 1064.5Z" stroke="#0D1A73" stroke-linejoin="round"></path>
<path d="M824.777 1075.44L671.487 672.536L675.819 670.46L848.533 1064.53L824.777 1075.44Z" stroke="#0D1A73" stroke-linejoin="round"></path>
<path d="M943.928 1020.61L691.506 660.375L695.017 657.453L969.177 1009.77L943.928 1020.61Z" stroke="#0D1A73" stroke-linejoin="round"></path>
<path d="M800.87 1086.58L667.002 674.449L671.484 672.527L824.775 1075.44L800.87 1086.58Z" stroke="#0D1A73" stroke-linejoin="round"></path>
<path d="M1085.49 315.058L715.784 540.349L713.468 535.735L1062.85 299.68L1085.49 315.058Z" stroke="#0D1A73" stroke-linejoin="round"></path>
<path d="M1107.38 332.358L717.874 545.039L715.783 540.348L1085.49 315.058L1107.38 332.358Z" stroke="#0D1A73" stroke-linejoin="round"></path>
<path d="M1160.34 683.687L724.897 605.182L725.645 600.722L1165.05 656.161L1160.34 683.687Z" stroke="#0D1A73" stroke-linejoin="round"></path>
<path d="M1062.85 299.689L713.467 535.745L711.002 531.208L1039.47 286.464L1062.85 299.689Z" stroke="#0D1A73" stroke-linejoin="round"></path>
<path d="M776.594 1098.5L662.373 676.14L667.005 674.448L800.873 1086.58L776.594 1098.5Z" stroke="#0D1A73" stroke-linejoin="round"></path>
<path d="M1156.76 711.292L724 609.488L724.897 605.182L1160.34 683.688L1156.76 711.292Z" stroke="#0D1A73" stroke-linejoin="round"></path>
<path d="M1165.05 656.152L725.648 600.713L726.171 596.254L1170.58 628.394L1165.05 656.152Z" stroke="#0D1A73" stroke-linejoin="round"></path>
<path d="M1039.47 286.464L711.001 531.208L708.236 526.671L1016.09 274.623L1039.47 286.464Z" stroke="#0D1A73" stroke-linejoin="round"></path>
<path d="M751.865 1111.81L657.589 677.683L662.37 676.145L776.591 1098.51L751.865 1111.81Z" stroke="#0D1A73" stroke-linejoin="round"></path>
<path d="M969.175 1009.78L695.014 657.467L698.376 654.468L995.47 998.863L969.175 1009.78Z" stroke="#0D1A73" stroke-linejoin="round"></path>
<path d="M1154.51 739.422L722.88 613.705L724 609.476L1156.76 711.28L1154.51 739.422Z" stroke="#0D1A73" stroke-linejoin="round"></path>
<path d="M1170.58 628.39L726.166 596.25L726.465 591.79L1176.7 600.094L1170.58 628.39Z" stroke="#0D1A73" stroke-linejoin="round"></path>
<path d="M1016.09 274.611L708.236 526.66L705.248 522.277L993.602 263.231L1016.09 274.611Z" stroke="#0D1A73" stroke-linejoin="round"></path>
<path d="M726.1 1123.5L652.667 678.992L657.597 677.685L751.873 1111.81L726.1 1123.5Z" stroke="#0D1A73" stroke-linejoin="round"></path>
<path d="M1128.6 351.352L719.67 549.731L717.877 545.041L1107.38 332.36L1128.6 351.352Z" stroke="#0D1A73" stroke-linejoin="round"></path>
<path d="M993.607 263.234L705.253 522.28L702.041 517.897L972.391 251.47L993.607 263.234Z" stroke="#0D1A73" stroke-linejoin="round"></path>
<path d="M699.426 1131.95L647.657 680.064L652.662 678.987L726.095 1123.49L699.426 1131.95Z" stroke="#0D1A73" stroke-linejoin="round"></path>
<path d="M1176.7 600.096L726.467 591.791L726.542 587.255L1182.98 570.954L1176.7 600.096Z" stroke="#0D1A73" stroke-linejoin="round"></path>
<path d="M1153.7 768.63L721.612 617.847L722.882 613.694L1154.52 739.411L1153.7 768.63Z" stroke="#0D1A73" stroke-linejoin="round"></path>
<path d="M972.392 251.473L702.042 517.9L698.605 513.748L952.67 238.402L972.392 251.473Z" stroke="#0D1A73" stroke-linejoin="round"></path>
<path d="M672.082 1138.02L642.575 680.827L647.654 680.058L699.423 1131.95L672.082 1138.02Z" stroke="#0D1A73" stroke-linejoin="round"></path>
<path d="M995.473 998.836L698.379 654.441L701.517 651.289L1022.67 987.379L995.473 998.836Z" stroke="#0D1A73" stroke-linejoin="round"></path>
<path d="M952.67 238.397L698.604 513.744L695.018 509.668L934.293 223.403L952.67 238.397Z" stroke="#0D1A73" stroke-linejoin="round"></path>
<path d="M644.298 1142.57L637.351 681.451L642.58 680.836L672.088 1138.03L644.298 1142.57Z" stroke="#0D1A73" stroke-linejoin="round"></path>
<path d="M1148.92 372.189L721.315 554.421L719.671 549.731L1128.6 351.352L1148.92 372.189Z" stroke="#0D1A73" stroke-linejoin="round"></path>
<path d="M1182.98 570.95L726.547 587.251L726.472 582.637L1188.88 540.963L1182.98 570.95Z" stroke="#0D1A73" stroke-linejoin="round"></path>
<path d="M934.291 223.406L695.017 509.671L691.132 505.673L917.109 205.952L934.291 223.406Z" stroke="#0D1A73" stroke-linejoin="round"></path>
<path d="M616.057 1146.02L632.118 681.75L637.347 681.442L644.295 1142.56L616.057 1146.02Z" stroke="#0D1A73" stroke-linejoin="round"></path>
<path d="M1154.14 799.33L720.113 622.019L721.607 617.867L1153.69 768.65L1154.14 799.33Z" stroke="#0D1A73" stroke-linejoin="round"></path>
<path d="M917.111 205.955L691.134 505.676L687.1 501.909L900.527 185.887L917.111 205.955Z" stroke="#0D1A73" stroke-linejoin="round"></path>
<path d="M587.222 1148.87L626.74 681.832L632.119 681.755L616.057 1146.02L587.222 1148.87Z" stroke="#0D1A73" stroke-linejoin="round"></path>
<path d="M1022.67 987.4L701.517 651.309L704.505 648.003L1050.31 974.482L1022.67 987.4Z" stroke="#0D1A73" stroke-linejoin="round"></path>
<path d="M1188.88 540.971L726.468 582.645L726.095 577.955L1193.66 510.137L1188.88 540.971Z" stroke="#0D1A73" stroke-linejoin="round"></path>
<path d="M1167.52 395.095L722.735 559.18L721.315 554.413L1148.92 372.181L1167.52 395.095Z" stroke="#0D1A73" stroke-linejoin="round"></path>
<path d="M557.789 1151.24L621.436 681.593L626.74 681.824L587.222 1148.86L557.789 1151.24Z" stroke="#0D1A73" stroke-linejoin="round"></path>
<path d="M900.525 185.889L687.098 501.911L682.84 498.297L883.717 163.821L900.525 185.889Z" stroke="#0D1A73" stroke-linejoin="round"></path>
<path d="M527.679 1152.94L616.053 681.135L621.431 681.597L557.784 1151.25L527.679 1152.94Z" stroke="#0D1A73" stroke-linejoin="round"></path>
<path d="M883.72 163.818L682.843 498.293L678.436 494.91L866.389 139.751L883.72 163.818Z" stroke="#0D1A73" stroke-linejoin="round"></path>
<path d="M1193.66 510.126L726.093 577.944L725.57 573.254L1195.75 478.986L1193.66 510.126Z" stroke="#0D1A73" stroke-linejoin="round"></path>
<path d="M1182.9 420.409L723.928 563.888L722.733 559.197L1167.52 395.112L1182.9 420.409Z" stroke="#0D1A73" stroke-linejoin="round"></path>
<path d="M496.834 1153.87L610.682 680.294L616.06 681.14L527.686 1152.94L496.834 1153.87Z" stroke="#0D1A73" stroke-linejoin="round"></path>
<path d="M1153.54 831.007L718.474 626.016L720.117 622.018L1154.14 799.328L1153.54 831.007Z" stroke="#0D1A73" stroke-linejoin="round"></path>
<path d="M866.384 139.756L678.431 494.915L673.8 491.686L848.082 114.074L866.384 139.756Z" stroke="#0D1A73" stroke-linejoin="round"></path>
<path d="M1192.92 448.472L724.826 568.575L723.929 563.885L1182.91 420.406L1192.92 448.472Z" stroke="#0D1A73" stroke-linejoin="round"></path>
<path d="M1195.75 479L725.57 573.268L724.823 568.578L1192.91 448.474L1195.75 479Z" stroke="#0D1A73" stroke-linejoin="round"></path>
<path d="M1050.31 974.489L704.507 648.01L707.271 644.626L1077.2 959.187L1050.31 974.489Z" stroke="#0D1A73" stroke-linejoin="round"></path>
<path d="M848.084 114.062L673.801 491.673L669.02 488.751L828.213 87.3806L848.084 114.062Z" stroke="#0D1A73" stroke-linejoin="round"></path>
<path d="M465.23 1153.64L605.374 679.295L610.677 680.295L496.83 1153.87L465.23 1153.64Z" stroke="#0D1A73" stroke-linejoin="round"></path>
<path d="M828.213 87.3918L669.02 488.763L664.09 485.995L806.474 61.0182L828.213 87.3918Z" stroke="#0D1A73" stroke-linejoin="round"></path>
<path d="M1148.24 861.907L716.606 629.927L718.474 626.005L1153.54 830.997L1148.24 861.907Z" stroke="#0D1A73" stroke-linejoin="round"></path>
<path d="M1077.2 959.176L707.268 644.615L709.882 641.078L1101.78 940.338L1077.2 959.176Z" stroke="#0D1A73" stroke-linejoin="round"></path>
<path d="M806.478 61.022L664.094 485.999L659.014 483.538L782.573 36.9552L806.478 61.022Z" stroke="#0D1A73" stroke-linejoin="round"></path>
<path d="M1137.71 890.969L714.513 633.769L716.605 629.924L1148.24 861.904L1137.71 890.969Z" stroke="#0D1A73" stroke-linejoin="round"></path>
<path d="M1122.09 917.345L712.27 637.462L714.511 633.771L1137.7 890.972L1122.09 917.345Z" stroke="#0D1A73" stroke-linejoin="round"></path>
<path d="M1101.78 940.35L709.883 641.09L712.274 637.476L1122.1 917.36L1101.78 940.35Z" stroke="#0D1A73" stroke-linejoin="round"></path>
<path d="M782.568 36.9494L659.009 483.532L653.854 481.379L756.347 17.8804L782.568 36.9494Z" stroke="#0D1A73" stroke-linejoin="round"></path>
<path d="M433.26 1151.72L600.073 677.914L605.377 679.298L465.233 1153.64L433.26 1151.72Z" stroke="#0D1A73" stroke-linejoin="round"></path>
<path d="M55.3343 552.277L531.716 576.421L531.567 581.726L66.6894 583.572L55.3343 552.277Z" stroke="#0D1A73" stroke-linejoin="round"></path>
<path d="M66.6938 583.578L531.571 581.733L531.646 586.962L73.865 613.566L66.6938 583.578Z" stroke="#0D1A73" stroke-linejoin="round"></path>
<path d="M73.8588 613.549L531.64 586.945L532.013 592.173L76.8471 642.998L73.8588 613.549Z" stroke="#0D1A73" stroke-linejoin="round"></path>
<path d="M76.8516 642.994L532.018 592.169L532.541 597.397L76.1047 672.52L76.8516 642.994Z" stroke="#0D1A73" stroke-linejoin="round"></path>
<path d="M756.353 17.8802L653.861 481.379L648.557 479.534L728.414 5.8084L756.353 17.8802Z" stroke="#0D1A73" stroke-linejoin="round"></path>
<path d="M76.1075 672.529L532.544 597.407L533.291 602.635L72.7458 702.748L76.1075 672.529Z" stroke="#0D1A73" stroke-linejoin="round"></path>
<path d="M72.7392 702.76L533.284 602.647L534.33 607.722L68.3315 733.9L72.7392 702.76Z" stroke="#0D1A73" stroke-linejoin="round"></path>
<path d="M40.6197 519.139L532.091 571.195L531.718 576.423L55.336 552.28L40.6197 519.139Z" stroke="#0D1A73" stroke-linejoin="round"></path>
<path d="M68.3349 733.895L534.333 607.717L535.603 612.791L64.8988 765.881L68.3349 733.895Z" stroke="#0D1A73" stroke-linejoin="round"></path>
<path d="M728.412 5.80923L648.554 479.535L643.175 477.92L699.651 0.503725L728.412 5.80923Z" stroke="#0D1A73" stroke-linejoin="round"></path>
<path d="M401.287 1147.49L594.917 676.298L600.072 677.913L433.26 1151.71L401.287 1147.49Z" stroke="#0D1A73" stroke-linejoin="round"></path>
<path d="M699.654 0.499986L643.178 477.916L637.725 476.686L670.744 0.884462L699.654 0.499986Z" stroke="#0D1A73" stroke-linejoin="round"></path>
<path d="M141.989 935.033L548.747 641.233L551.81 645.462L159.544 960.638L141.989 935.033Z" stroke="#0D1A73" stroke-linejoin="round"></path>
<path d="M164.777 243.709L547.63 520.593L545.091 525.284L126.38 254.166L164.777 243.709Z" stroke="#0D1A73" stroke-linejoin="round"></path>
<path d="M122.79 910.046L545.909 636.775L548.748 641.235L141.989 935.036L122.79 910.046Z" stroke="#0D1A73" stroke-linejoin="round"></path>
<path d="M670.74 0.887639L637.721 476.689L632.268 475.843L642.278 5.73169L670.74 0.887639Z" stroke="#0D1A73" stroke-linejoin="round"></path>
<path d="M201.529 234.957L550.392 516.07L547.628 520.607L164.775 243.722L201.529 234.957Z" stroke="#0D1A73" stroke-linejoin="round"></path>
<path d="M234.996 226.176L553.38 511.595L550.392 516.055L201.529 234.942L234.996 226.176Z" stroke="#0D1A73" stroke-linejoin="round"></path>
<path d="M159.55 960.645L551.816 645.469L555.177 649.621L175.461 987.403L159.55 960.645Z" stroke="#0D1A73" stroke-linejoin="round"></path>
<path d="M642.279 5.718L632.269 475.83L626.741 475.291L614.564 13.5609L642.279 5.718Z" stroke="#0D1A73" stroke-linejoin="round"></path>
<path d="M64.9004 765.88L535.605 612.79L537.173 617.788L64.8256 798.098L64.9004 765.88Z" stroke="#0D1A73" stroke-linejoin="round"></path>
<path d="M264.431 216.115L556.595 507.301L553.383 511.607L234.998 226.188L264.431 216.115Z" stroke="#0D1A73" stroke-linejoin="round"></path>
<path d="M103.072 884.677L543.297 632.244L545.912 636.78L122.793 910.051L103.072 884.677Z" stroke="#0D1A73" stroke-linejoin="round"></path>
<path d="M614.563 13.5797L626.74 475.31L621.286 475.079L587.595 23.1911L614.563 13.5797Z" stroke="#0D1A73" stroke-linejoin="round"></path>
<path d="M289.828 203.64L559.955 503.207L556.593 507.283L264.429 216.096L289.828 203.64Z" stroke="#0D1A73" stroke-linejoin="round"></path>
<path d="M311.346 188.035L563.619 499.366L559.958 503.211L289.832 203.644L311.346 188.035Z" stroke="#0D1A73" stroke-linejoin="round"></path>
<path d="M587.592 23.1805L621.283 475.069L615.829 475.223L561.296 33.3302L587.592 23.1805Z" stroke="#0D1A73" stroke-linejoin="round"></path>
<path d="M367.598 1143.78L589.84 674.365L594.92 676.288L401.289 1147.48L367.598 1143.78Z" stroke="#0D1A73" stroke-linejoin="round"></path>
<path d="M329.871 168.978L567.502 495.688L563.617 499.379L311.345 188.047L329.871 168.978Z" stroke="#0D1A73" stroke-linejoin="round"></path>
<path d="M84.8454 857.977L540.983 627.535L543.298 632.225L103.073 884.658L84.8454 857.977Z" stroke="#0D1A73" stroke-linejoin="round"></path>
<path d="M561.3 33.3276L615.834 475.22L610.38 475.758L535.453 43.2465L561.3 33.3276Z" stroke="#0D1A73" stroke-linejoin="round"></path>
<path d="M71.0952 829.162L538.961 622.71L540.978 627.554L84.8408 857.996L71.0952 829.162Z" stroke="#0D1A73" stroke-linejoin="round"></path>
<path d="M64.8217 798.089L537.17 617.78L538.963 622.701L71.0965 829.153L64.8217 798.089Z" stroke="#0D1A73" stroke-linejoin="round"></path>
<path d="M346.228 146.508L571.533 492.287L567.499 495.67L329.868 168.961L346.228 146.508Z" stroke="#0D1A73" stroke-linejoin="round"></path>
<path d="M535.453 43.256L610.38 475.768L605.076 476.69L509.531 52.3291L535.453 43.256Z" stroke="#0D1A73" stroke-linejoin="round"></path>
<path d="M175.461 987.4L555.178 649.618L558.763 653.462L190.402 1015.23L175.461 987.4Z" stroke="#0D1A73" stroke-linejoin="round"></path>
<path d="M362.667 122.756L575.795 489.141L571.536 492.294L346.232 146.515L362.667 122.756Z" stroke="#0D1A73" stroke-linejoin="round"></path>
<path d="M509.531 52.3259L605.076 476.687L599.847 477.917L483.385 60.0919L509.531 52.3259Z" stroke="#0D1A73" stroke-linejoin="round"></path>
<path d="M381.042 100.453L580.275 486.215L575.793 489.137L362.665 122.752L381.042 100.453Z" stroke="#0D1A73" stroke-linejoin="round"></path>
<path d="M483.387 60.0886L599.849 477.914L594.769 479.452L456.344 66.3937L483.387 60.0886Z" stroke="#0D1A73" stroke-linejoin="round"></path>
<path d="M402.632 82.2345L584.908 483.682L580.276 486.22L381.043 100.458L402.632 82.2345Z" stroke="#0D1A73" stroke-linejoin="round"></path>
<path d="M428.33 71.4009L589.763 481.461L584.908 483.69L402.632 82.2426L428.33 71.4009Z" stroke="#0D1A73" stroke-linejoin="round"></path>
<path d="M456.342 66.3946L594.767 479.453L589.762 481.452L428.328 71.3925L456.342 66.3946Z" stroke="#0D1A73" stroke-linejoin="round"></path>
<path d="M24.3347 483.759L532.689 565.879L532.092 571.184L40.6199 519.129L24.3347 483.759Z" stroke="#0D1A73" stroke-linejoin="round"></path>
<path d="M190.397 1015.22L558.758 653.449L562.568 657.14L205.636 1043.59L190.397 1015.22Z" stroke="#0D1A73" stroke-linejoin="round"></path>
<path d="M126.377 254.165L545.088 525.282L542.772 530.126L88.5768 267.851L126.377 254.165Z" stroke="#0D1A73" stroke-linejoin="round"></path>
<path d="M332.855 1139.33L584.828 672.145L589.834 674.375L367.592 1143.79L332.855 1139.33Z" stroke="#0D1A73" stroke-linejoin="round"></path>
<path d="M205.641 1043.62L562.573 657.166L566.607 660.703L222.898 1071.22L205.641 1043.62Z" stroke="#0D1A73" stroke-linejoin="round"></path>
<path d="M299.389 1130.72L580.049 669.683L584.83 672.144L332.856 1139.33L299.389 1130.72Z" stroke="#0D1A73" stroke-linejoin="round"></path>
<path d="M9.83716 446.707L533.431 560.66L532.684 565.888L24.3296 483.769L9.83716 446.707Z" stroke="#0D1A73" stroke-linejoin="round"></path>
<path d="M222.897 1071.21L566.606 660.694L570.939 663.923L243.739 1096.05L222.897 1071.21Z" stroke="#0D1A73" stroke-linejoin="round"></path>
<path d="M269.209 1116.35L575.417 666.919L580.049 669.687L299.388 1130.73L269.209 1116.35Z" stroke="#0D1A73" stroke-linejoin="round"></path>
<path d="M243.738 1096.05L570.938 663.919L575.42 666.917L269.212 1116.35L243.738 1096.05Z" stroke="#0D1A73" stroke-linejoin="round"></path>
<path d="M88.58 267.861L542.775 530.137L540.683 535.058L54.4406 286.238L88.58 267.861Z" stroke="#0D1A73" stroke-linejoin="round"></path>
<path d="M1.47492 409.479L534.482 555.418L533.436 560.647L9.84209 446.694L1.47492 409.479Z" stroke="#0D1A73" stroke-linejoin="round"></path>
<path d="M54.4386 286.224L540.681 535.044L538.814 540.042L27.0227 310.137L54.4386 286.224Z" stroke="#0D1A73" stroke-linejoin="round"></path>
<path d="M0.500004 373.112L535.748 550.269L534.478 555.42L1.47072 409.481L0.500004 373.112Z" stroke="#0D1A73" stroke-linejoin="round"></path>
<path d="M8.72347 339.431L537.173 545.114L535.754 550.266L0.506304 373.109L8.72347 339.431Z" stroke="#0D1A73" stroke-linejoin="round"></path>
<path d="M27.0231 310.149L538.814 540.053L537.171 545.127L8.72079 339.444L27.0231 310.149Z" stroke="#0D1A73" stroke-linejoin="round"></path>
</svg>