<svg width="500" height="1042" viewBox="0 0 500 1042" fill="none" xmlns="http://www.w3.org/2000/svg">
<path d="M219.662 940.074L22.883 600.014L26.4255 597.655L241.889 930.15L219.662 940.074Z" stroke="#3F4559" stroke-linejoin="round"></path>
<path d="M197.711 950.067L19.1306 602.164L22.8815 600.013L219.66 940.073L197.711 950.067Z" stroke="#3F4559" stroke-linejoin="round"></path>
<path d="M241.887 930.145L26.4242 597.649L29.8277 595.151L264.531 920.29L241.887 930.145Z" stroke="#3F4559" stroke-linejoin="round"></path>
<path d="M175.829 959.904L15.2388 604.229L19.1286 602.147L197.709 950.049L175.829 959.904Z" stroke="#3F4559" stroke-linejoin="round"></path>
<path d="M153.742 969.781L11.2113 606.125L15.2399 604.251L175.83 959.926L153.742 969.781Z" stroke="#3F4559" stroke-linejoin="round"></path>
<path d="M264.528 920.291L29.8249 595.152L33.0895 592.515L288.006 910.506L264.528 920.291Z" stroke="#3F4559" stroke-linejoin="round"></path>
<path d="M131.515 979.836L7.04387 607.852L11.2115 606.117L153.742 969.773L131.515 979.836Z" stroke="#3F4559" stroke-linejoin="round"></path>
<path d="M396.156 283.476L52.4014 486.818L50.2482 482.654L375.11 269.596L396.156 283.476Z" stroke="#3F4559" stroke-linejoin="round"></path>
<path d="M416.51 299.092L54.348 491.053L52.4031 486.819L396.158 283.477L416.51 299.092Z" stroke="#3F4559" stroke-linejoin="round"></path>
<path d="M465.755 616.193L60.8756 545.336L61.5702 541.311L470.131 591.348L465.755 616.193Z" stroke="#3F4559" stroke-linejoin="round"></path>
<path d="M375.107 269.604L50.2455 482.662L47.9535 478.568L353.367 257.667L375.107 269.604Z" stroke="#3F4559" stroke-linejoin="round"></path>
<path d="M108.941 990.594L2.73775 609.38L7.0442 607.853L131.516 979.837L108.941 990.594Z" stroke="#3F4559" stroke-linejoin="round"></path>
<path d="M462.42 641.107L60.0411 549.222L60.8746 545.335L465.754 616.193L462.42 641.107Z" stroke="#3F4559" stroke-linejoin="round"></path>
<path d="M470.132 591.338L61.5709 541.3L62.0572 537.275L475.271 566.284L470.132 591.338Z" stroke="#3F4559" stroke-linejoin="round"></path>
<path d="M353.369 257.668L47.9558 478.568L45.3856 474.474L331.628 246.981L353.369 257.668Z" stroke="#3F4559" stroke-linejoin="round"></path>
<path d="M85.9484 1002.6L-1.7096 610.771L2.7359 609.383L108.939 990.597L85.9484 1002.6Z" stroke="#3F4559" stroke-linejoin="round"></path>
<path d="M288.005 910.518L33.0891 592.527L36.2148 589.82L312.455 900.663L288.005 910.518Z" stroke="#3F4559" stroke-linejoin="round"></path>
<path d="M460.332 666.494L58.9955 553.025L60.0374 549.208L462.416 641.094L460.332 666.494Z" stroke="#3F4559" stroke-linejoin="round"></path>
<path d="M475.267 566.281L62.0528 537.272L62.3305 533.247L480.963 540.742L475.267 566.281Z" stroke="#3F4559" stroke-linejoin="round"></path>
<path d="M331.627 246.966L45.3843 474.459L42.606 470.503L310.72 236.695L331.627 246.966Z" stroke="#3F4559" stroke-linejoin="round"></path>
<path d="M61.9876 1013.15L-6.29096 611.953L-1.70682 610.773L85.9512 1002.61L61.9876 1013.15Z" stroke="#3F4559" stroke-linejoin="round"></path>
<path d="M436.236 316.233L56.015 495.285L54.348 491.052L416.51 299.091L436.236 316.233Z" stroke="#3F4559" stroke-linejoin="round"></path>
<path d="M310.719 236.703L42.6051 470.512L39.6184 466.556L290.992 226.085L310.719 236.703Z" stroke="#3F4559" stroke-linejoin="round"></path>
<path d="M37.1912 1020.78L-10.9441 612.917L-6.29024 611.946L61.9883 1013.15L37.1912 1020.78Z" stroke="#3F4559" stroke-linejoin="round"></path>
<path d="M480.966 540.746L62.3338 533.251L62.4034 529.156L486.801 514.443L480.966 540.746Z" stroke="#3F4559" stroke-linejoin="round"></path>
<path d="M459.574 692.857L57.8202 556.764L59.0011 553.016L460.338 666.485L459.574 692.857Z" stroke="#3F4559" stroke-linejoin="round"></path>
<path d="M290.996 226.084L39.6222 466.555L36.4272 462.807L272.659 214.286L290.996 226.084Z" stroke="#3F4559" stroke-linejoin="round"></path>
<path d="M11.7694 1026.26L-15.6669 613.609L-10.9437 612.915L37.1916 1020.78L11.7694 1026.26Z" stroke="#3F4559" stroke-linejoin="round"></path>
<path d="M312.457 900.641L36.2167 589.798L39.1339 586.953L337.74 890.3L312.457 900.641Z" stroke="#3F4559" stroke-linejoin="round"></path>
<path d="M272.656 214.283L36.4247 462.805L33.0906 459.126L255.569 200.75L272.656 214.283Z" stroke="#3F4559" stroke-linejoin="round"></path>
<path d="M-14.0694 1030.37L-20.5291 614.175L-15.6668 613.62L11.7695 1026.27L-14.0694 1030.37Z" stroke="#3F4559" stroke-linejoin="round"></path>
<path d="M455.127 335.04L57.5408 499.518L56.0127 495.284L436.234 316.232L455.127 335.04Z" stroke="#3F4559" stroke-linejoin="round"></path>
<path d="M486.8 514.436L62.4024 529.148L62.3329 524.984L492.287 487.37L486.8 514.436Z" stroke="#3F4559" stroke-linejoin="round"></path>
<path d="M255.57 200.757L33.0917 459.133L29.4799 455.524L239.595 185.003L255.57 200.757Z" stroke="#3F4559" stroke-linejoin="round"></path>
<path d="M459.988 720.568L56.4289 560.532L57.818 556.784L459.572 692.878L459.988 720.568Z" stroke="#3F4559" stroke-linejoin="round"></path>
<path d="M239.594 185L29.4788 455.521L25.7279 452.121L224.174 166.887L239.594 185Z" stroke="#3F4559" stroke-linejoin="round"></path>
<path d="M337.74 890.318L39.1331 586.971L41.9115 583.987L363.439 878.659L337.74 890.318Z" stroke="#3F4559" stroke-linejoin="round"></path>
<path d="M492.285 487.379L62.3312 524.994L61.984 520.761L496.731 459.55L492.285 487.379Z" stroke="#3F4559" stroke-linejoin="round"></path>
<path d="M472.424 355.715L58.862 503.814L57.5423 499.512L455.128 335.034L472.424 355.715Z" stroke="#3F4559" stroke-linejoin="round"></path>
<path d="M224.174 166.895L25.728 452.129L21.7688 448.867L208.545 146.977L224.174 166.895Z" stroke="#3F4559" stroke-linejoin="round"></path>
<path d="M208.547 146.969L21.7702 448.859L17.6721 445.806L192.432 125.247L208.547 146.969Z" stroke="#3F4559" stroke-linejoin="round"></path>
<path d="M496.733 459.539L61.986 520.75L61.4998 516.517L498.678 431.432L496.733 459.539Z" stroke="#3F4559" stroke-linejoin="round"></path>
<path d="M486.732 378.562L59.9734 508.062L58.862 503.829L472.424 355.73L486.732 378.562Z" stroke="#3F4559" stroke-linejoin="round"></path>
<path d="M459.433 749.162L54.9007 564.142L56.4289 560.533L459.988 720.569L459.433 749.162Z" stroke="#3F4559" stroke-linejoin="round"></path>
<path d="M192.428 125.248L17.6676 445.807L13.3612 442.892L175.41 102.068L192.428 125.248Z" stroke="#3F4559" stroke-linejoin="round"></path>
<path d="M496.035 403.89L60.8021 512.293L59.9686 508.06L486.728 378.559L496.035 403.89Z" stroke="#3F4559" stroke-linejoin="round"></path>
<path d="M498.678 431.445L61.5 516.529L60.8053 512.296L496.038 403.893L498.678 431.445Z" stroke="#3F4559" stroke-linejoin="round"></path>
<path d="M363.44 878.662L41.9119 583.99L44.4821 580.936L388.445 864.852L363.44 878.662Z" stroke="#3F4559" stroke-linejoin="round"></path>
<path d="M175.412 102.063L13.3632 442.887L8.91771 440.25L156.936 77.9816L175.412 102.063Z" stroke="#3F4559" stroke-linejoin="round"></path>
<path d="M156.936 77.9879L8.91716 440.256L4.33302 437.757L136.723 54.1836L156.936 77.9879Z" stroke="#3F4559" stroke-linejoin="round"></path>
<path d="M454.502 777.051L53.1653 567.671L54.9018 564.132L459.434 749.152L454.502 777.051Z" stroke="#3F4559" stroke-linejoin="round"></path>
<path d="M388.445 864.842L44.4815 580.926L46.9124 577.734L411.297 847.839L388.445 864.842Z" stroke="#3F4559" stroke-linejoin="round"></path>
<path d="M136.725 54.1879L4.33482 437.762L-0.388583 435.541L114.497 32.4658L136.725 54.1879Z" stroke="#3F4559" stroke-linejoin="round"></path>
<path d="M444.708 803.275L51.2202 571.132L53.1651 567.662L454.502 777.042L444.708 803.275Z" stroke="#3F4559" stroke-linejoin="round"></path>
<path d="M430.192 827.09L49.1373 574.474L51.2212 571.143L444.709 803.286L430.192 827.09Z" stroke="#3F4559" stroke-linejoin="round"></path>
<path d="M411.294 847.848L46.91 577.743L49.1328 574.481L430.187 827.097L411.294 847.848Z" stroke="#3F4559" stroke-linejoin="round"></path>
<path d="M114.494 32.46L-0.391938 435.535L-5.18466 433.592L90.1138 15.2487L114.494 32.46Z" stroke="#3F4559" stroke-linejoin="round"></path>
<path d="M90.1152 15.2525L-5.1832 433.596L-10.1148 431.93L64.1374 4.35674L90.1152 15.2525Z" stroke="#3F4559" stroke-linejoin="round"></path>
<path d="M64.1386 4.35622L-10.1136 431.93L-15.1147 430.472L37.3967 -0.432399L64.1386 4.35622Z" stroke="#3F4559" stroke-linejoin="round"></path>
<path d="M37.4004 -0.437508L-15.111 430.467L-20.1814 429.357L10.5196 -0.0904887L37.4004 -0.437508Z" stroke="#3F4559" stroke-linejoin="round"></path>
<path d="M10.5157 -0.08778L-20.1853 429.359L-25.2559 428.596L-15.9483 4.28435L10.5157 -0.08778Z" stroke="#3F4559" stroke-linejoin="round"></path>
</svg>