<svg width="1255" height="1134" viewBox="0 0 1255 1134" fill="none" xmlns="http://www.w3.org/2000/svg">
<path d="M315.334 109.834L537.371 479.821L533.374 482.388L290.254 120.632L315.334 109.834Z" stroke="#D8730D" stroke-linejoin="round"></path>
<path d="M340.106 98.957L541.609 477.476L537.377 479.816L315.34 109.83L340.106 98.957Z" stroke="#D8730D" stroke-linejoin="round"></path>
<path d="M290.257 120.637L533.377 482.393L529.537 485.111L264.707 131.359L290.257 120.637Z" stroke="#D8730D" stroke-linejoin="round"></path>
<path d="M364.79 88.2578L545.993 475.233L541.604 477.499L340.102 98.9799L364.79 88.2578Z" stroke="#D8730D" stroke-linejoin="round"></path>
<path d="M389.697 77.5107L550.522 473.17L545.977 475.208L364.773 88.2328L389.697 77.5107Z" stroke="#D8730D" stroke-linejoin="round"></path>
<path d="M264.702 131.358L529.532 485.111L525.848 487.98L238.211 142.005L264.702 131.358Z" stroke="#D8730D" stroke-linejoin="round"></path>
<path d="M414.799 66.5703L555.247 471.29L550.544 473.178L389.719 77.5189L414.799 66.5703Z" stroke="#D8730D" stroke-linejoin="round"></path>
<path d="M116.172 824.209L504.05 602.973L506.48 607.503L139.92 839.311L116.172 824.209Z" stroke="#D8730D" stroke-linejoin="round"></path>
<path d="M93.2187 807.228L501.867 598.375L504.061 602.98L116.183 824.217L93.2187 807.228Z" stroke="#D8730D" stroke-linejoin="round"></path>
<path d="M37.6447 462.213L494.494 539.306L493.71 543.686L32.707 489.245L37.6447 462.213Z" stroke="#D8730D" stroke-linejoin="round"></path>
<path d="M139.93 839.304L506.49 607.496L509.077 611.951L164.461 852.291L139.93 839.304Z" stroke="#D8730D" stroke-linejoin="round"></path>
<path d="M440.269 54.873L560.104 469.635L555.245 471.296L414.797 66.5767L440.269 54.873Z" stroke="#D8730D" stroke-linejoin="round"></path>
<path d="M41.4144 435.121L495.442 535.093L494.501 539.321L37.6523 462.228L41.4144 435.121Z" stroke="#D8730D" stroke-linejoin="round"></path>
<path d="M32.7216 489.267L493.724 543.707L493.176 548.087L26.9219 516.525L32.7216 489.267Z" stroke="#D8730D" stroke-linejoin="round"></path>
<path d="M164.449 852.293L509.065 611.953L511.965 616.408L188.981 863.921L164.449 852.293Z" stroke="#D8730D" stroke-linejoin="round"></path>
<path d="M466.208 41.7988L565.117 468.114L560.101 469.624L440.266 54.8616L466.208 41.7988Z" stroke="#D8730D" stroke-linejoin="round"></path>
<path d="M238.217 141.984L525.854 487.959L522.327 490.904L210.629 152.706L238.217 141.984Z" stroke="#D8730D" stroke-linejoin="round"></path>
<path d="M43.7574 407.489L496.609 530.944L495.433 535.097L41.4062 435.125L43.7574 407.489Z" stroke="#D8730D" stroke-linejoin="round"></path>
<path d="M26.9112 516.525L493.165 548.087L492.852 552.466L20.4844 544.312L26.9112 516.525Z" stroke="#D8730D" stroke-linejoin="round"></path>
<path d="M189.004 863.936L511.988 616.422L515.123 620.726L212.595 875.111L189.004 863.936Z" stroke="#D8730D" stroke-linejoin="round"></path>
<path d="M493.243 30.3174L570.285 466.826L565.113 468.109L466.203 41.7945L493.243 30.3174Z" stroke="#D8730D" stroke-linejoin="round"></path>
<path d="M70.957 788.574L499.983 593.765L501.864 598.371L93.2156 807.225L70.957 788.574Z" stroke="#D8730D" stroke-linejoin="round"></path>
<path d="M212.582 875.11L515.111 620.725L518.481 625.029L234.841 886.662L212.582 875.11Z" stroke="#D8730D" stroke-linejoin="round"></path>
<path d="M521.218 22.0166L575.532 465.774L570.281 466.831L493.238 30.3224L521.218 22.0166Z" stroke="#D8730D" stroke-linejoin="round"></path>
<path d="M20.4897 544.309L492.857 552.464L492.779 556.919L13.9062 572.926L20.4897 544.309Z" stroke="#D8730D" stroke-linejoin="round"></path>
<path d="M44.6201 378.807L497.942 526.877L496.609 530.955L43.7578 407.5L44.6201 378.807Z" stroke="#D8730D" stroke-linejoin="round"></path>
<path d="M234.84 886.658L518.48 625.025L522.085 629.102L255.531 899.494L234.84 886.658Z" stroke="#D8730D" stroke-linejoin="round"></path>
<path d="M549.908 16.0459L580.866 465.013L575.537 465.768L521.223 22.011L549.908 16.0459Z" stroke="#D8730D" stroke-linejoin="round"></path>
<path d="M210.626 152.736L522.324 490.934L519.033 494.03L182.098 163.987L210.626 152.736Z" stroke="#D8730D" stroke-linejoin="round"></path>
<path d="M255.531 899.489L522.085 629.097L525.847 633.099L274.811 914.213L255.531 899.489Z" stroke="#D8730D" stroke-linejoin="round"></path>
<path d="M579.066 11.5967L586.355 464.415L580.868 465.019L549.91 16.0516L579.066 11.5967Z" stroke="#D8730D" stroke-linejoin="round"></path>
<path d="M49.6445 768.112L498.264 589.159L499.988 593.765L70.9626 788.574L49.6445 768.112Z" stroke="#D8730D" stroke-linejoin="round"></path>
<path d="M13.8987 572.938L492.771 556.931L492.849 561.461L7.70703 602.386L13.8987 572.938Z" stroke="#D8730D" stroke-linejoin="round"></path>
<path d="M274.816 914.215L525.852 633.101L529.927 637.027L292.843 931.355L274.816 914.215Z" stroke="#D8730D" stroke-linejoin="round"></path>
<path d="M608.688 8.20801L591.837 464.122L586.351 464.424L579.062 11.6058L608.688 8.20801Z" stroke="#D8730D" stroke-linejoin="round"></path>
<path d="M44.1523 348.647L499.512 522.768L497.945 526.845L44.6226 378.775L44.1523 348.647Z" stroke="#D8730D" stroke-linejoin="round"></path>
<path d="M292.836 931.345L529.921 637.018L534.153 640.717L310.235 951.053L292.836 931.345Z" stroke="#D8730D" stroke-linejoin="round"></path>
<path d="M638.936 5.4043L597.475 464.036L591.832 464.112L608.683 8.19807L638.936 5.4043Z" stroke="#D8730D" stroke-linejoin="round"></path>
<path d="M182.092 163.973L519.027 494.016L515.892 497.262L153.094 176.658L182.092 163.973Z" stroke="#D8730D" stroke-linejoin="round"></path>
<path d="M7.70729 602.366L492.85 561.441L493.241 566.047L2.69141 632.644L7.70729 602.366Z" stroke="#D8730D" stroke-linejoin="round"></path>
<path d="M30.1289 745.619L496.775 584.486L498.264 589.167L49.6442 768.12L30.1289 745.619Z" stroke="#D8730D" stroke-linejoin="round"></path>
<path d="M669.817 3.07129L603.041 464.271L597.477 464.044L638.937 5.41202L669.817 3.07129Z" stroke="#D8730D" stroke-linejoin="round"></path>
<path d="M310.238 951.062L534.156 640.726L538.624 644.275L327.873 972.732L310.238 951.062Z" stroke="#D8730D" stroke-linejoin="round"></path>
<path d="M701.408 1.41211L608.69 464.726L603.047 464.273L669.822 3.07327L701.408 1.41211Z" stroke="#D8730D" stroke-linejoin="round"></path>
<path d="M327.871 972.736L538.622 644.279L543.246 647.602L346.054 996.37L327.871 972.736Z" stroke="#D8730D" stroke-linejoin="round"></path>
<path d="M2.69449 632.655L493.245 566.058L493.793 570.664L0.5 663.236L2.69449 632.655Z" stroke="#D8730D" stroke-linejoin="round"></path>
<path d="M13.9727 720.762L495.51 579.865L496.764 584.471L30.1179 745.604L13.9727 720.762Z" stroke="#D8730D" stroke-linejoin="round"></path>
<path d="M733.782 0.5L614.338 465.55L608.695 464.72L701.413 1.40609L733.782 0.5Z" stroke="#D8730D" stroke-linejoin="round"></path>
<path d="M44.7792 317.547L501.236 518.85L499.512 522.776L44.1523 348.656L44.7792 317.547Z" stroke="#D8730D" stroke-linejoin="round"></path>
<path d="M346.055 996.362L543.247 647.593L548.106 650.764L365.257 1021.58L346.055 996.362Z" stroke="#D8730D" stroke-linejoin="round"></path>
<path d="M3.46875 693.2L494.567 575.258L495.508 579.864L13.971 720.761L3.46875 693.2Z" stroke="#D8730D" stroke-linejoin="round"></path>
<path d="M0.5 663.213L493.793 570.641L494.577 575.247L3.47829 693.19L0.5 663.213Z" stroke="#D8730D" stroke-linejoin="round"></path>
<path d="M153.086 176.644L515.885 497.249L512.985 500.571L124.871 191.67L153.086 176.644Z" stroke="#D8730D" stroke-linejoin="round"></path>
<path d="M365.254 1021.59L548.103 650.771L553.119 653.641L386.101 1047.79L365.254 1021.59Z" stroke="#D8730D" stroke-linejoin="round"></path>
<path d="M766.929 0.727989L619.897 466.533L614.332 465.552L733.776 0.501465L766.929 0.727989Z" stroke="#D8730D" stroke-linejoin="round"></path>
<path d="M386.109 1047.79L553.127 653.646L558.3 656.364L408.917 1073.69L386.109 1047.79Z" stroke="#D8730D" stroke-linejoin="round"></path>
<path d="M50.3497 287.202L503.201 515.008L501.242 518.859L44.7852 317.556L50.3497 287.202Z" stroke="#D8730D" stroke-linejoin="round"></path>
<path d="M124.891 191.692L513.005 500.593L510.262 504.066L99.1055 210.191L124.891 191.692Z" stroke="#D8730D" stroke-linejoin="round"></path>
<path d="M408.91 1073.67L558.293 656.344L563.623 658.76L433.99 1097.31L408.91 1073.67Z" stroke="#D8730D" stroke-linejoin="round"></path>
<path d="M61.3986 258.671L505.394 511.243L503.199 515.019L50.3477 287.213L61.3986 258.671Z" stroke="#D8730D" stroke-linejoin="round"></path>
<path d="M77.771 232.761L507.737 507.608L505.386 511.232L61.3906 258.66L77.771 232.761Z" stroke="#D8730D" stroke-linejoin="round"></path>
<path d="M99.0915 210.175L510.248 504.05L507.74 507.599L77.7734 232.752L99.0915 210.175Z" stroke="#D8730D" stroke-linejoin="round"></path>
<path d="M433.996 1097.32L563.629 658.771L569.037 660.886L461.506 1116.04L433.996 1097.32Z" stroke="#D8730D" stroke-linejoin="round"></path>
<path d="M800.483 2.60351L625.471 467.88L619.906 466.521L766.938 0.71582L800.483 2.60351Z" stroke="#D8730D" stroke-linejoin="round"></path>
<path d="M1196.97 591.262L697.172 567.552L697.329 562.342L1185.06 560.53L1196.97 591.262Z" stroke="#D8730D" stroke-linejoin="round"></path>
<path d="M1185.06 560.528L697.336 562.34L697.258 557.206L1177.54 531.08L1185.06 560.528Z" stroke="#D8730D" stroke-linejoin="round"></path>
<path d="M1177.53 531.095L697.247 557.221L696.855 552.086L1174.4 502.176L1177.53 531.095Z" stroke="#D8730D" stroke-linejoin="round"></path>
<path d="M1174.4 502.177L696.861 552.087L696.312 546.952L1175.18 473.182L1174.4 502.177Z" stroke="#D8730D" stroke-linejoin="round"></path>
<path d="M461.496 1116.05L569.027 660.895L574.591 662.707L490.808 1127.91L461.496 1116.05Z" stroke="#D8730D" stroke-linejoin="round"></path>
<path d="M1175.19 473.175L696.319 546.946L695.535 541.812L1178.72 443.501L1175.19 473.175Z" stroke="#D8730D" stroke-linejoin="round"></path>
<path d="M1178.71 443.496L695.523 541.806L694.426 536.823L1183.33 412.915L1178.71 443.496Z" stroke="#D8730D" stroke-linejoin="round"></path>
<path d="M1212.41 623.798L696.781 572.679L697.173 567.545L1196.97 591.254L1212.41 623.798Z" stroke="#D8730D" stroke-linejoin="round"></path>
<path d="M1183.33 412.913L694.426 536.821L693.094 531.837L1186.94 381.502L1183.33 412.913Z" stroke="#D8730D" stroke-linejoin="round"></path>
<path d="M490.816 1127.9L574.599 662.701L580.243 664.287L520.991 1133.11L490.816 1127.9Z" stroke="#D8730D" stroke-linejoin="round"></path>
<path d="M834.017 6.76423L630.869 469.474L625.461 467.888L800.473 2.61133L834.017 6.76423Z" stroke="#D8730D" stroke-linejoin="round"></path>
<path d="M520.984 1133.11L580.236 664.286L585.957 665.494L551.316 1132.73L520.984 1133.11Z" stroke="#D8730D" stroke-linejoin="round"></path>
<path d="M1106.05 215.393L679.295 503.907L676.082 499.754L1087.63 190.249L1106.05 215.393Z" stroke="#D8730D" stroke-linejoin="round"></path>
<path d="M1082.15 894.279L680.477 622.376L683.141 617.771L1122.43 884.01L1082.15 894.279Z" stroke="#D8730D" stroke-linejoin="round"></path>
<path d="M1126.2 239.929L682.283 508.282L679.305 503.903L1106.06 215.389L1126.2 239.929Z" stroke="#D8730D" stroke-linejoin="round"></path>
<path d="M551.32 1132.73L585.962 665.493L591.683 666.324L581.181 1127.98L551.32 1132.73Z" stroke="#D8730D" stroke-linejoin="round"></path>
<path d="M1043.59 902.874L677.582 626.819L680.482 622.364L1082.15 894.267L1043.59 902.874Z" stroke="#D8730D" stroke-linejoin="round"></path>
<path d="M1008.49 911.486L674.453 631.203L677.588 626.823L1043.6 902.878L1008.49 911.486Z" stroke="#D8730D" stroke-linejoin="round"></path>
<path d="M1087.64 190.248L676.089 499.753L672.562 495.676L1070.94 163.972L1087.64 190.248Z" stroke="#D8730D" stroke-linejoin="round"></path>
<path d="M581.184 1127.99L591.686 666.339L597.486 666.868L610.261 1120.29L581.184 1127.99Z" stroke="#D8730D" stroke-linejoin="round"></path>
<path d="M1186.94 381.5L693.099 531.835L691.453 526.927L1187.02 349.862L1186.94 381.5Z" stroke="#D8730D" stroke-linejoin="round"></path>
<path d="M977.611 921.385L671.086 635.438L674.456 631.209L1008.49 911.493L977.611 921.385Z" stroke="#D8730D" stroke-linejoin="round"></path>
<path d="M1146.89 264.848L685.021 512.739L682.277 508.284L1126.19 239.931L1146.89 264.848Z" stroke="#D8730D" stroke-linejoin="round"></path>
<path d="M610.263 1120.27L597.488 666.849L603.21 667.075L638.557 1110.83L610.263 1120.27Z" stroke="#D8730D" stroke-linejoin="round"></path>
<path d="M950.955 933.63L667.551 639.453L671.078 635.451L977.603 921.398L950.955 933.63Z" stroke="#D8730D" stroke-linejoin="round"></path>
<path d="M928.376 948.959L663.703 643.23L667.543 639.455L950.948 933.631L928.376 948.959Z" stroke="#D8730D" stroke-linejoin="round"></path>
<path d="M638.554 1110.84L603.207 667.084L608.929 666.933L666.142 1100.87L638.554 1110.84Z" stroke="#D8730D" stroke-linejoin="round"></path>
<path d="M869.367 10.4007L636.201 471.373L630.871 469.486L834.02 6.77637L869.367 10.4007Z" stroke="#D8730D" stroke-linejoin="round"></path>
<path d="M908.948 967.671L659.637 646.84L663.712 643.215L928.385 948.945L908.948 967.671Z" stroke="#D8730D" stroke-linejoin="round"></path>
<path d="M1166.02 291.059L687.457 517.354L685.027 512.748L1146.89 264.857L1166.02 291.059Z" stroke="#D8730D" stroke-linejoin="round"></path>
<path d="M666.136 1100.88L608.922 666.935L614.643 666.406L693.253 1091.14L666.136 1100.88Z" stroke="#D8730D" stroke-linejoin="round"></path>
<path d="M1180.43 319.35L689.561 522.088L687.445 517.331L1166 291.035L1180.43 319.35Z" stroke="#D8730D" stroke-linejoin="round"></path>
<path d="M1187.02 349.865L691.455 526.93L689.574 522.098L1180.44 319.36L1187.02 349.865Z" stroke="#D8730D" stroke-linejoin="round"></path>
<path d="M891.782 989.724L655.402 650.167L659.635 646.845L908.946 967.676L891.782 989.724Z" stroke="#D8730D" stroke-linejoin="round"></path>
<path d="M693.259 1091.13L614.648 666.398L620.213 665.492L720.455 1082.22L693.259 1091.13Z" stroke="#D8730D" stroke-linejoin="round"></path>
<path d="M1070.94 163.964L672.559 495.668L668.797 491.892L1055.26 136.63L1070.94 163.964Z" stroke="#D8730D" stroke-linejoin="round"></path>
<path d="M874.538 1013.06L650.934 653.264L655.401 650.168L891.781 989.725L874.538 1013.06Z" stroke="#D8730D" stroke-linejoin="round"></path>
<path d="M720.453 1082.22L620.211 665.498L625.697 664.29L747.884 1074.6L720.453 1082.22Z" stroke="#D8730D" stroke-linejoin="round"></path>
<path d="M855.257 1034.97L646.23 656.146L650.933 653.276L874.537 1013.07L855.257 1034.97Z" stroke="#D8730D" stroke-linejoin="round"></path>
<path d="M747.882 1074.61L625.695 664.298L631.025 662.788L776.254 1068.41L747.882 1074.61Z" stroke="#D8730D" stroke-linejoin="round"></path>
<path d="M832.614 1052.84L641.379 658.616L646.238 656.124L855.265 1034.94L832.614 1052.84Z" stroke="#D8730D" stroke-linejoin="round"></path>
<path d="M805.638 1063.48L636.27 660.801L641.364 658.611L832.599 1052.84L805.638 1063.48Z" stroke="#D8730D" stroke-linejoin="round"></path>
<path d="M776.261 1068.41L631.031 662.788L636.282 660.825L805.651 1063.51L776.261 1068.41Z" stroke="#D8730D" stroke-linejoin="round"></path>
<path d="M1229.49 658.549L696.148 577.907L696.775 572.697L1212.41 623.816L1229.49 658.549Z" stroke="#D8730D" stroke-linejoin="round"></path>
<path d="M1055.26 136.643L668.794 491.906L664.797 488.282L1039.27 108.781L1055.26 136.643Z" stroke="#D8730D" stroke-linejoin="round"></path>
<path d="M1122.45 884.017L683.152 617.777L685.582 613.021L1162.1 870.576L1122.45 884.017Z" stroke="#D8730D" stroke-linejoin="round"></path>
<path d="M905.814 14.7735L641.454 473.557L636.203 471.367L869.369 10.394L905.814 14.7735Z" stroke="#D8730D" stroke-linejoin="round"></path>
<path d="M1039.28 108.774L664.803 488.274L660.57 484.801L1021.17 81.667L1039.28 108.774Z" stroke="#D8730D" stroke-linejoin="round"></path>
<path d="M940.925 23.2371L646.469 475.98L641.453 473.563L905.812 14.7803L940.925 23.2371Z" stroke="#D8730D" stroke-linejoin="round"></path>
<path d="M1244.71 694.941L695.379 583.039L696.163 577.905L1229.51 658.547L1244.71 694.941Z" stroke="#D8730D" stroke-linejoin="round"></path>
<path d="M1021.18 81.6653L660.573 484.799L656.027 481.628L999.31 57.2764L1021.18 81.6653Z" stroke="#D8730D" stroke-linejoin="round"></path>
<path d="M972.576 37.3406L651.316 478.681L646.457 475.963L940.913 23.2207L972.576 37.3406Z" stroke="#D8730D" stroke-linejoin="round"></path>
<path d="M999.313 57.2767L656.03 481.628L651.328 478.684L972.588 37.3428L999.313 57.2767Z" stroke="#D8730D" stroke-linejoin="round"></path>
<path d="M1162.09 870.568L685.57 613.012L687.765 608.18L1197.91 852.522L1162.09 870.568Z" stroke="#D8730D" stroke-linejoin="round"></path>
<path d="M1253.48 731.49L694.277 588.176L695.375 583.042L1244.71 694.944L1253.48 731.49Z" stroke="#D8730D" stroke-linejoin="round"></path>
<path d="M1197.91 852.522L687.77 608.18L689.729 603.272L1226.68 829.04L1197.91 852.522Z" stroke="#D8730D" stroke-linejoin="round"></path>
<path d="M1254.5 767.198L692.941 593.229L694.274 588.17L1253.48 731.483L1254.5 767.198Z" stroke="#D8730D" stroke-linejoin="round"></path>
<path d="M1245.88 800.287L691.453 598.305L692.942 593.246L1254.5 767.215L1245.88 800.287Z" stroke="#D8730D" stroke-linejoin="round"></path>
<path d="M1226.67 829.03L689.723 603.263L691.447 598.28L1245.87 800.262L1226.67 829.03Z" stroke="#D8730D" stroke-linejoin="round"></path>
</svg>